<svg width="22" height="22" viewBox="0 0 22 22" fill="none" xmlns="http://www.w3.org/2000/svg">
<path d="M7 11V6H10.9375C12.625 6 16 7 16 11M7 11V16H10.9375C12.625 16 16 15 16 11M7 11H5M7 11H16M16 11H17M21 11C21 16.5228 16.5228 21 11 21C5.47715 21 1 16.5228 1 11C1 5.47715 5.47715 1 11 1C16.5228 1 21 5.47715 21 11Z" stroke="url(#paint0_linear_713_1571)" stroke-width="2" stroke-linecap="round" stroke-linejoin="round"/>
<defs>
<linearGradient id="paint0_linear_713_1571" x1="10.76" y1="-12" x2="10.76" y2="33.7462" gradientUnits="userSpaceOnUse">
<stop stop-color="#F5C037"/>
<stop offset="1" stop-color="#FF5D00"/>
</linearGradient>
</defs>
</svg>
