<?xml version="1.0" standalone="no"?>
<!DOCTYPE svg PUBLIC "-//W3C//DTD SVG 20010904//EN"
 "http://www.w3.org/TR/2001/REC-SVG-20010904/DTD/svg10.dtd">
<svg version="1.0" xmlns="http://www.w3.org/2000/svg"
 width="512.000000pt" height="512.000000pt" viewBox="0 0 512.000000 512.000000"
 preserveAspectRatio="xMidYMid meet">

<g transform="translate(0.000000,512.000000) scale(0.100000,-0.100000)"
fill="#000000" stroke="none">
<path d="M3142 5099 c-26 -13 -55 -39 -70 -62 l-27 -41 -3 -453 -3 -453 -1097
0 c-742 0 -1109 -4 -1135 -11 -51 -14 -114 -72 -127 -118 -8 -24 -10 -213 -8
-567 l3 -530 27 -41 c45 -68 77 -78 277 -81 l174 -3 -461 -462 c-316 -316
-466 -474 -477 -499 -19 -48 -19 -99 1 -146 17 -41 459 -493 506 -518 53 -28
108 8 108 70 0 25 -36 65 -241 272 -186 187 -240 246 -235 260 3 11 349 363
769 782 641 641 768 763 788 760 l24 -3 5 -493 5 -494 24 -19 c21 -18 42 -19
271 -19 l249 0 20 26 c28 35 26 69 -4 99 -24 25 -25 25 -220 25 l-195 0 0 180
0 180 475 0 475 0 0 -180 0 -180 -129 0 c-115 0 -131 -2 -155 -21 -33 -26 -36
-79 -6 -109 18 -18 33 -20 155 -20 l135 0 0 -187 c0 -163 3 -194 19 -230 36
-78 140 -121 227 -93 30 10 97 70 289 261 l251 249 230 0 c166 0 233 -3 242
-12 17 -17 17 -1009 0 -1026 -9 -9 -281 -12 -1163 -12 l-1152 0 -19 -21 c-18
-20 -19 -47 -24 -506 -5 -448 -6 -487 -22 -497 -15 -9 -77 49 -445 416 -293
292 -437 429 -456 434 -43 10 -81 -22 -85 -71 -3 -38 -2 -39 425 -467 295
-295 441 -435 471 -449 88 -43 198 -4 241 83 20 43 21 56 21 486 l0 442 1098
0 c734 0 1109 4 1135 11 47 13 106 63 123 106 11 26 14 139 14 560 0 516 0
528 -21 571 -13 26 -38 54 -62 70 -40 26 -45 27 -220 30 l-179 4 136 137 c114
115 136 142 136 168 0 38 -36 73 -75 73 -26 0 -92 -62 -481 -451 -376 -375
-455 -450 -475 -447 l-24 3 -5 493 -5 494 -24 19 c-22 18 -46 19 -547 19
l-524 0 0 188 c0 199 -9 242 -56 284 -29 26 -89 48 -129 48 -72 0 -104 -25
-355 -276 l-246 -244 -230 0 c-166 0 -233 3 -242 12 -17 17 -17 1009 0 1026 9
9 281 12 1163 12 l1152 0 19 21 c18 20 19 47 24 506 5 449 6 487 23 497 15 9
122 -94 792 -764 426 -426 775 -781 775 -789 0 -8 -97 -112 -215 -231 -191
-191 -215 -219 -215 -248 0 -42 30 -72 72 -72 28 0 57 25 250 218 134 133 226
233 238 258 25 51 25 107 0 158 -28 58 -1561 1589 -1612 1611 -52 21 -105 19
-156 -6z"/>
</g>
</svg>
