<svg id="Layer_1" data-name="Layer 1" xmlns="http://www.w3.org/2000/svg" xmlns:xlink="http://www.w3.org/1999/xlink" viewBox="0 0 167.9 235.8"><defs><style>.cls-1{fill:url(#linear-gradient);}</style><linearGradient id="linear-gradient" x1="88.15" y1="838.86" x2="88.15" y2="1073.08" gradientTransform="translate(0 -834)" gradientUnits="userSpaceOnUse"><stop offset="0" stop-color="#ff5d00"/><stop offset="1" stop-color="#eb0000"/></linearGradient></defs><path class="cls-1" d="M11.1,82.6h-.8a.79.79,0,0,0,.8.8Zm23.1,0v.8a.79.79,0,0,0,.8-.8Zm107.8,0h-.8a.79.79,0,0,0,.8.8Zm23.1,0v.8a.68.68,0,0,0,.7-.7ZM65.3,43a.79.79,0,0,0-.8.8.74.74,0,0,0,.8.8Zm6.2,1.5a.79.79,0,0,0,.8-.8.71.71,0,0,0-.8-.7Zm-3.8,5.8a.79.79,0,0,0,.8.8.74.74,0,0,0,.8-.8ZM59,55.7l-.4.6a1.1,1.1,0,0,0,.8,0,.67.67,0,0,0,.4-.7H59Zm-2.4-1.5v-.8a.73.73,0,0,0-.7.6.76.76,0,0,0,.3.8Zm0,5.8h-.8a.79.79,0,0,0,.8.8Zm.7-6.6a.79.79,0,0,0-.8-.8.74.74,0,0,0-.8.8Zm-.7,6.5h.8a.55.55,0,0,0-.4-.6Zm-2.4-1.4.4-.6a1.1,1.1,0,0,0-.8,0,.84.84,0,0,0-.4.7h.8Zm1.6,2.3a.79.79,0,0,0,.8.8.74.74,0,0,0,.8-.8Zm66.4-5.1-.4.6a1.1,1.1,0,0,0,.8,0,.84.84,0,0,0,.4-.7h-.8Zm-2.4-1.5v-.8a.73.73,0,0,0-.7.6.76.76,0,0,0,.3.8Zm0,5.8H119a.79.79,0,0,0,.8.8Zm.7-6.6a.8.8,0,1,0-1.6,0Zm-.7,6.5h.8a.55.55,0,0,0-.4-.6Zm-2.4-1.4.4-.6a1.1,1.1,0,0,0-.8,0,.67.67,0,0,0-.4.7h.8Zm1.6,2.3a.8.8,0,0,0,1.6,0ZM50,122.3a.79.79,0,0,0,.8.8.74.74,0,0,0,.8-.8ZM45.1,109a.78.78,0,1,0-1.1,1.1Zm-4.4-1.9a.78.78,0,0,0,1.1-1.1ZM38.5,94.3l-.5-.6h0Zm9.4.6-.7-.1h0Zm-3.4,0,.7.4a.72.72,0,0,0-1-1Zm-.4,5.5-.4.6h0Zm7.6-4.3.7.1h0ZM38.5,94.3l-.5-.5h0Zm-.9,20.9a.74.74,0,0,0,1.3-.7ZM13.1,156a.75.75,0,1,0-1.5-.1Zm-2.6,61.3a.75.75,0,0,0,1.5.1Zm3.2-95.8a.75.75,0,0,0-1.5-.1Zm-1.8,16a.75.75,0,0,0,1.5.1Zm2.3-40.3a.75.75,0,0,0-1.5-.1Zm-1.7,6.5a.75.75,0,1,0,1.5.1Zm22.3,62.7a.75.75,0,0,0-1.5.1Zm.9,50.9a.75.75,0,1,0,1.5-.1Zm-2.6-85.1a.75.75,0,0,0-1.5.1Zm-.3,23.1a.75.75,0,1,0,1.5-.1ZM31.5,97.1a.75.75,0,1,0-1.5.1ZM31.3,124a.75.75,0,1,0,1.5-.1Zm41.4-13.5.6-.5a.76.76,0,0,0-.9-.2.81.81,0,0,0-.4.9ZM67,119l-.3-.7a.74.74,0,0,0,0,1.4Zm13.3-4.5.6-.5a.75.75,0,0,0-1-.2.69.69,0,0,0-.3.9Zm-6.2,7.9-.2-.7a.86.86,0,0,0-.6.7.73.73,0,0,0,.6.7Zm3.6,4.8.1-.7a.68.68,0,0,0-.8.4.76.76,0,0,0,.2.9Zm6.9-3.8.7-.2a.76.76,0,0,0-.8-.6.68.68,0,0,0-.7.7ZM47.2,147.9a.75.75,0,0,0,1.5-.1Zm3.7-5.5.3.7h0Zm1.7-6.6.6-.4a.78.78,0,0,0-1-.3Zm9.5,7.9-.4.6h0Zm-3.6-4.3.7-.2a.69.69,0,0,0-.8-.5.86.86,0,0,0-.7.6Zm.9,15.3-.5-.6a.77.77,0,0,0-.1,1,.68.68,0,0,0,1,.1Zm8-.8.4-.6h0Zm-4.3,6.2-.4-.6a.67.67,0,0,0-.3.8.75.75,0,0,0,.7.5Zm1-7.7a.72.72,0,0,0-.8,1.2Zm-13.9,5.8a.72.72,0,1,0,1.2.8Zm1.3-7.4-.7.2h0Zm4.4-4.5.7.3a.75.75,0,0,0-.1-.8.78.78,0,0,0-.8-.2Zm-.5,5.5-.4-.6h0Zm-4,2.3a.72.72,0,1,0,1.2.8Zm.3,9.7a.78.78,0,1,0,1.1,1.1Zm10.3-.7.5-.6h0Zm.5,4.9.6.5h0Zm-6.8,1.6-.1-.7a.76.76,0,0,0-.6.8.68.68,0,0,0,.7.7Zm3.6-4h0Zm-.8-4.4a.78.78,0,0,0-1.1,1.1ZM11.1,87.8a.8.8,0,0,0,0,1.6Zm4.7.7.5.5a.78.78,0,0,0,.2-.8.75.75,0,0,0-.7-.5Zm-9.2.1H5.8a.76.76,0,0,0,.2.5Zm0-6v-.8a.79.79,0,0,0-.8.8Zm31.9,0h.8a.79.79,0,0,0-.8-.8Zm0,5.3.5.5a.76.76,0,0,0,.2-.5Zm-10.1.5v-.8a.75.75,0,0,0-.7.5.63.63,0,0,0,.2.8Zm4.8.7a.8.8,0,0,0,0-1.6Zm0,7.4v.8a.79.79,0,0,0,.8-.8Zm-22.1,0h-.8a.79.79,0,0,0,.8.8ZM8.6,217.3v-.8a.79.79,0,0,0-.8.8Zm30.8,0h.8a.79.79,0,0,0-.8-.8Zm0,8.6v.8a.79.79,0,0,0,.8-.8Zm-30.8,0H7.8a.79.79,0,0,0,.8.8Zm32.3,6.2v.8a.55.55,0,0,0,.6-.4.85.85,0,0,0,0-.7Zm-33.8,0-.7-.4a.85.85,0,0,0,0,.7.82.82,0,0,0,.6.4v-.7Zm3.5-6.2v-.8a.75.75,0,0,0-.7.4Zm26.9,0,.7-.4a.84.84,0,0,0-.7-.4ZM5,232.1v-.8a.79.79,0,0,0-.8.8Zm37.9,0h.8a.79.79,0,0,0-.8-.8Zm0,6.9v.8a.79.79,0,0,0,.8-.8ZM5,239H4.2a.79.79,0,0,0,.8.8Zm29.3-55a.72.72,0,1,0,1.2.8ZM22.2,161.2l-.2.8h0Zm-9.5-23.7h.7a.75.75,0,0,0-.5-.7.78.78,0,0,0-.8.2Zm-.1,4.5h0Zm10,10.9.2-.7h0Zm17.8,6.2-.4.6a.85.85,0,0,0,.7,0,.66.66,0,0,0,.4-.5Zm.1-11.2h0Zm-8.1-15.6-.4.6h0Zm-12.6-6,.4-.7h0Zm-6.5-22.6H14a.91.91,0,0,0-.3-.7.88.88,0,0,0-.7-.1Zm6.8,15.1.4-.6h0ZM39.5,130l-.6.4a.81.81,0,0,0,.9.3.75.75,0,0,0,.4-.9Zm17.6-30-.2.7h0Zm8.3,9.8h0Zm-14.6,3-.7.3h0Zm3.6-7.6.1.7a.75.75,0,0,0-.1-1.5Zm1.2,7.3.4-.6h0Zm6.5.3.5.6Zm-.9-11.2.2-.7h0ZM46.3,127.4l-.7.3a.67.67,0,0,0,.7.4.84.84,0,0,0,.7-.4Zm21.2-8.1.3-.7h0Zm10.9,9.5.7-.3h0Zm-.8,11.4-.6-.5h0Zm-10.5,2.3.3-.7h0Zm-3.5-14.3.7.3a.73.73,0,0,0-.4-1,.78.78,0,0,0-1,.3Zm4.3,8.4.4-.6h0Zm7,.2-.3-.7h0Zm3.4-7.6-.7.2h0Zm-11.2-6.5.2-.7h0Zm-15.9,6.9.6.4h0Zm-3.4,18.2h0Zm1.5,11.7-.3.7a.85.85,0,0,0,.7,0Zm10-4.8.6.4a.76.76,0,0,0,0-.8.83.83,0,0,0-.8-.3ZM88,234.6a.8.8,0,0,0,0-1.6ZM13.3,101a.8.8,0,0,0,0,1.6ZM31,102.5a.8.8,0,1,0,0-1.6ZM72,46.7a.79.79,0,0,0-.8-.8.74.74,0,0,0-.8.8Zm-5.6,0a.79.79,0,0,0-.8-.8.74.74,0,0,0-.8.8ZM105,43a.79.79,0,0,0-.8.8.74.74,0,0,0,.8.8Zm6.1,1.5a.79.79,0,0,0,.8-.8.74.74,0,0,0-.8-.8Zm-3.8,5.8a.79.79,0,0,0,.8.8.74.74,0,0,0,.8-.8Zm4.3-3.6a.8.8,0,1,0-1.6,0Zm-5.6,0a.8.8,0,1,0-1.6,0ZM88.7,40.9a.78.78,0,1,0-1.1-1.1Zm-4.8.4.6-.5h0Zm1.7-5.5-.5-.6h0ZM91,34.1l-.4.6h0Zm-1.1,4a.74.74,0,1,0,1.3.7Zm-1.3-.8a.72.72,0,0,0-.8-1.2ZM85.4,42a.76.76,0,1,0,1.4-.6Zm6-8.5a.72.72,0,1,0-.8,1.2ZM90,41.4a.78.78,0,0,0,1.2,1Zm-1.8,5.9.5-.5a.73.73,0,0,0-1,0Zm-7.1,7.2-.6-.5a.76.76,0,0,0-.2.5Zm0,5.2.5.5a.76.76,0,0,0,.2-.5Zm-2.7,2.7-.6.6a.72.72,0,0,0,1,0Zm-3-3,.5-.5a.78.78,0,0,0-.8-.2.75.75,0,0,0-.5.7Zm0,4.3h-.8a.76.76,0,0,0,.2.5ZM78.7,67h.8a.76.76,0,0,0-.2-.5Zm-.8,1.9a.79.79,0,0,0,.8.8.74.74,0,0,0,.8-.8Zm5.2-6.6v-.7a.6.6,0,0,0-.4.1Zm-1.8,1.3-.4-.6a.71.71,0,0,0-.3.6Zm-.8,4.2a.79.79,0,0,0,.8.8.74.74,0,0,0,.8-.8Zm7.6.1a.79.79,0,0,0,.8-.8.74.74,0,0,0-.8-.8ZM79,69.5a.76.76,0,1,0-.6-1.4Zm-.3,1.8.5-.6h0Zm9.4,1.9a.8.8,0,1,0,0-1.6Zm7.2-18.7H96a.76.76,0,0,0-.2-.5Zm0,5.2h-.8a.76.76,0,0,0,.2.5Zm2.6,2.7-.5.6a.72.72,0,0,0,1,0Zm3-3h.8a.75.75,0,0,0-.5-.7.63.63,0,0,0-.8.2Zm0,4.3.5.5a.76.76,0,0,0,.2-.5ZM97.6,67l-.5-.5a.76.76,0,0,0-.2.5Zm-.7,1.9a.79.79,0,0,0,.8.8.74.74,0,0,0,.8-.8Zm-3.7-6.6.4-.6a.6.6,0,0,0-.4-.1ZM95,63.5h.7a.71.71,0,0,0-.3-.6Zm-.7,4.3a.75.75,0,0,0,1.5-.1Zm-6.1-1.4a.79.79,0,0,0-.8.8.74.74,0,0,0,.8.8Zm9.7,1.7a.76.76,0,1,0-.6,1.4Zm-.3,3.2-.5-.6h0Zm-9.4.4a.8.8,0,0,0,0,1.6Zm7.7,29.7v.8a.71.71,0,0,0,.6-.3.88.88,0,0,0,.1-.7Zm-15.5,0-.7-.3a.62.62,0,0,0,.1.7.71.71,0,0,0,.6.3Zm.5-11.3h-.8a.68.68,0,0,0,.7.7Zm5.7-9.3.5.6a.78.78,0,0,0,.2-.8.75.75,0,0,0-.7-.5Zm-2.1,4.3h-.7a.68.68,0,0,0,.7.7Zm1.8,3.2V89a.79.79,0,0,0,.8-.8h-.8Zm-1.8,0v-.8a.79.79,0,0,0-.8.8Zm0,1.9v.7a.68.68,0,0,0,.7-.7Zm11.9-5.1h.8a.79.79,0,0,0-.8-.8Zm0,3.1V89a.79.79,0,0,0,.8-.8Zm-10.1,0h-.8a.79.79,0,0,0,.8.8Zm12.2,9.7v.8a.37.37,0,0,0,.3-.1Zm3.7-1.8.3.7a.67.67,0,0,0,.4-.7,1,1,0,0,0-.4-.7Zm-3.7-1.8.3-.7c-.1,0-.2-.1-.3-.1Zm-20.7,0v-.8a.37.37,0,0,0-.3.1ZM74,96.1l-.3-.7a.67.67,0,0,0-.4.7,1,1,0,0,0,.4.7Zm3.8,1.8-.3.7c.1,0,.2.1.3.1ZM20.5,28a1,1,0,0,0,.4,1,1,1,0,0,0,1-.4Zm3.4.2a.72.72,0,0,0,.8-1.2Zm130.4-1.8a.7.7,0,0,0,1,.4.83.83,0,0,0,.5-1Zm-2.9-1.6a.72.72,0,0,0,.8,1.2Zm3.3,7.9h0Zm-1.3.7a.8.8,0,1,0,0,1.6Zm5-1.3a.78.78,0,0,0-1.1,1.1Zm2.8,3.9-.5.5a.76.76,0,0,0,.5.2Zm2.1.7a.79.79,0,0,0,.8-.8.74.74,0,0,0-.8-.8Zm-147.7.9a.77.77,0,0,0,.7.8.79.79,0,0,0,.8-.8Zm109.2,84.7a.79.79,0,0,0,.8.8.74.74,0,0,0,.8-.8Zm7.5-12.3a.78.78,0,0,0-1.1-1.1Zm2.3-4a.78.78,0,1,0,1.1,1.1Zm3.2-11.7.5-.6h0Zm-9.4.6.7-.1h0Zm3.4,0,.4-.7a.72.72,0,0,0-1,1Zm.4,5.5.4.6h0Zm-7.6-4.3-.7.1h0Zm13.2-1.8.5-.5h0Zm-.4,20.1a.74.74,0,0,0,1.3.7Zm27.2,41.5a.75.75,0,1,0-1.5.1Zm-.3,61.4a.71.71,0,0,0,.8.7c.5,0,.7-.3.7-.8Zm-.3-95.8a.71.71,0,0,0-.8-.7.77.77,0,0,0-.7.8Zm-1.2,16a.71.71,0,0,0,.8.7.77.77,0,0,0,.7-.8Zm.8-40.4a.75.75,0,0,0-1.5.1Zm-1.4,6.6a.75.75,0,0,0,1.5-.1ZM143,166.5a.75.75,0,1,0-1.5-.1Zm-4,50.8a.75.75,0,1,0,1.5.1Zm5.6-85a.75.75,0,1,0-1.5-.1ZM142,155.2a.75.75,0,0,0,1.5.1Zm4.2-58a.75.75,0,1,0-1.5-.1Zm-2.8,26.7a.75.75,0,0,0,1.5.1Zm-39.9-13.4.7.2a.74.74,0,0,0-.4-.9.65.65,0,0,0-.9.2Zm5.8,8.5.2.7a.74.74,0,0,0,0-1.4Zm-13.4-4.5.7.3a.81.81,0,0,0-.3-.9.8.8,0,0,0-1,.2Zm6.3,7.9.2.7a.86.86,0,0,0,.6-.7.73.73,0,0,0-.6-.7Zm-3.6,4.8.5.6a.76.76,0,0,0,.2-.9.68.68,0,0,0-.8-.4Zm-6.9-3.8.7-.1c0-.4-.4-.6-.7-.7a.76.76,0,0,0-.8.6Zm35.9,24.3a.75.75,0,1,0,1.5.1Zm-2.2-5.3-.3.7h0Zm-1.8-6.6.3-.7a.69.69,0,0,0-1,.3Zm-9.4,7.9.4.6h0Zm3.6-4.3.7-.1a.75.75,0,0,0-.7-.6.89.89,0,0,0-.8.5Zm-.9,15.3-.5.6a.76.76,0,0,0,1-.1.67.67,0,0,0-.1-1Zm-8.1-.8-.4-.6h0Zm4.4,6.2v.8a.75.75,0,0,0,.7-.5.67.67,0,0,0-.3-.8Zm-.2-6.5a.72.72,0,1,0-.8-1.2Zm11.8,5.5a.72.72,0,0,0,1.2-.8Zm-.1-8.3.7.2h0Zm-4.4-4.5.3-.7a.72.72,0,0,0-.9,1Zm.5,5.5.5-.6h0Zm2.8,3.1a.72.72,0,0,0,1.2-.8Zm-.1,10a.78.78,0,1,0,1.1-1.1Zm-9.2-1.8-.5-.6h0Zm-.6,4.9-.6.5h0Zm6.9,1.6v.7a.68.68,0,0,0,.7-.7.76.76,0,0,0-.6-.8Zm-3.7-4h0Zm1.9-3.3a.78.78,0,0,0-1.1-1.1Zm46.4-73a.8.8,0,0,0,0-1.6Zm-4.8-.8v-.8a.75.75,0,0,0-.7.5.63.63,0,0,0,.2.8Zm9.3.1.5.5a.76.76,0,0,0,.2-.5Zm0-6h.8a.79.79,0,0,0-.8-.8Zm-31.9,0v-.8a.79.79,0,0,0-.8.8Zm0,5.3H137a.76.76,0,0,0,.2.5Zm10.1.5.5.5a.78.78,0,0,0,.2-.8.75.75,0,0,0-.7-.5Zm-4.8-.8a.8.8,0,0,0,0,1.6Zm0,8.9h-.8a.79.79,0,0,0,.8.8Zm22,0v.8a.79.79,0,0,0,.8-.8ZM167.7,226v.8a.79.79,0,0,0,.8-.8Zm-30.8,0h-.8a.79.79,0,0,0,.8.8Zm0-8.7v-.8a.79.79,0,0,0-.8.8Zm30.8,0h.8a.79.79,0,0,0-.8-.8Zm-32.3,14.8-.7-.4a.85.85,0,0,0,0,.7.82.82,0,0,0,.6.4v-.7Zm33.7,0v.8a.55.55,0,0,0,.6-.4.85.85,0,0,0,0-.7Zm-3.4-6.2.7-.4a.84.84,0,0,0-.7-.4Zm-27,0v-.8a1,1,0,0,0-.7.4Zm32.6,13.2v.8a.79.79,0,0,0,.8-.8Zm-38,0h-.8a.79.79,0,0,0,.8.8Zm0-6.9v-.8a.79.79,0,0,0-.8.8Zm38,0h.8a.79.79,0,0,0-.8-.8Zm-30.6-47.4a.72.72,0,0,0,1.2-.8Zm13.4-23.6.2.7h0Zm9.5-23.7.6-.5a.78.78,0,0,0-.8-.2.75.75,0,0,0-.5.7Zm.1,4.5h0Zm-10,10.9-.2-.7h0Zm-17.9,6.2-.7.2a1,1,0,0,0,.4.5.85.85,0,0,0,.7,0Zm0-11.2h0Zm8.1-15.6.4.6h0Zm12.6-6-.4-.7h0Zm6.5-22.6.3-.7a.62.62,0,0,0-.7.1.78.78,0,0,0-.3.7Zm-6.9,15.1-.4-.6h0ZM136.8,130l-.7-.2a.72.72,0,0,0,1.3.6Zm-17.6-30,.2.7h0Zm-8.3,9.8h0Zm14.6,3,.7.3h0Zm-3.6-7.6.1-.7a.75.75,0,0,0-.1,1.5Zm-1.2,7.3-.4-.6h0Zm-6.5.3-.5.6Zm.8-11.2-.2-.7h0Zm15,25.8-.7.3a.67.67,0,0,0,.7.4.84.84,0,0,0,.7-.4Zm-21.2-8.1-.3-.7h0Zm-10.9,9.5-.7-.3h0Zm.8,11.4.6-.4h0Zm10.5,2.3-.3-.7h0Zm3.5-14.3.7-.4a.69.69,0,0,0-1-.3.82.82,0,0,0-.4,1Zm-4.3,8.4-.4-.6h0Zm-7,.2.3-.7h0Zm-3.5-7.6.7.2h0Zm11.3-6.5-.2-.7h0Zm15.9,6.9-.6.4h0Zm3.3,18.2h0ZM127,159.5l-.4.6a.85.85,0,0,0,.7,0Zm-10-4.8.2-.7a.67.67,0,0,0-.8.3.61.61,0,0,0,0,.8ZM88.2,233.1a.8.8,0,0,0,0,1.6Zm74.7-130.6a.8.8,0,0,0,0-1.6ZM145.2,101a.8.8,0,0,0,0,1.6ZM28.5,82.6a.79.79,0,0,0,.8.8.71.71,0,0,0,.7-.8Zm117.7,0a.8.8,0,0,0,1.6,0Zm-130.9,0a.77.77,0,0,0,.7.8.79.79,0,0,0,.8-.8Zm144,0a.8.8,0,0,0,1.6,0ZM88.1,4.1c-43,0-77.8,35.1-77.8,78.5h1.5c0-42.5,34.1-77,76.3-77Zm-77,79.2H34.2V81.8H11.1ZM35,82.6C35,53,58.8,29,88.1,29V27.5c-30.2,0-54.6,24.7-54.6,55.1ZM88.1,29c29.3,0,53.1,24,53.1,53.6h1.5c0-30.4-24.5-55.1-54.6-55.1ZM142,83.3h23.1V81.8H142Zm23.9-.7c0-43.3-34.8-78.5-77.8-78.5V5.6c42.1,0,76.2,34.4,76.3,77ZM65.3,44.5h3.1V43H65.3ZM71.5,43H68.4v1.5h3.1Zm-3.8.8v6.5h1.5V43.8Zm-8,11.9c0-1-1-2.2-3.1-2.2V55c1.6,0,1.6.8,1.6.7Zm-3.5-.8,2.4,1.4.8-1.3L57,53.6Zm.4-1.4a3.81,3.81,0,0,0-2.4.7,1.93,1.93,0,0,0-.7,1.5H55a.36.36,0,0,1,.2-.3,2.68,2.68,0,0,1,1.5-.4V53.5Zm-3.2,2.2c0,1,1,2.2,3.1,2.2V56.4c-1.6,0-1.6-.8-1.6-.7Zm3.2,2.2a2,2,0,0,1,1.5.4.36.36,0,0,1,.2.3h1.5a2.08,2.08,0,0,0-.7-1.5,3.81,3.81,0,0,0-2.4-.7v1.5Zm1.6.6c0-.1,0,.7-1.6.7v1.5c2.2,0,3.1-1.2,3.1-2.2ZM57.3,60V54.3H55.8V60Zm0-5.7v-.9H55.8v.9Zm-.7,4.8a2,2,0,0,1-1.5-.4.36.36,0,0,1-.2-.3H53.4a2.08,2.08,0,0,0,.7,1.5,3.81,3.81,0,0,0,2.4.7V59.1Zm-2.8,0,2.4,1.4.8-1.3-2.4-1.4Zm2,.8v.9h1.5v-.9Zm67.1-4.2c0-1-1-2.2-3.1-2.2V55c1.6,0,1.6.8,1.6.7Zm-3.5-.8,2.4,1.4.8-1.3-2.4-1.4Zm.4-1.4a3.81,3.81,0,0,0-2.4.7,1.93,1.93,0,0,0-.7,1.5h1.5a.36.36,0,0,1,.2-.3,2.68,2.68,0,0,1,1.5-.4V53.5Zm-3.1,2.2c0,1,1,2.2,3.1,2.2V56.4c-1.6,0-1.6-.8-1.6-.7Zm3.1,2.2a2,2,0,0,1,1.5.4.36.36,0,0,1,.2.3H123a2.08,2.08,0,0,0-.7-1.5,3.81,3.81,0,0,0-2.4-.7v1.5Zm1.6.6c0-.1,0,.7-1.6.7v1.5c2.2,0,3.1-1.2,3.1-2.2Zm-.9,1.5V54.3H119V60Zm0-5.7v-.9H119v.9Zm-.7,4.8a2,2,0,0,1-1.5-.4.36.36,0,0,1-.2-.3h-1.5a2.08,2.08,0,0,0,.7,1.5,3.81,3.81,0,0,0,2.4.7V59.1Zm-2.8,0,2.4,1.4.8-1.3-2.4-1.4Zm2,.8v.9h1.5v-.9ZM51.5,122.3a13.52,13.52,0,0,0-1.2-5.9A24.61,24.61,0,0,0,45,109l-1.1,1a26.3,26.3,0,0,1,5,6.9,14,14,0,0,1,1.1,5.3h1.5ZM41.2,106.5l.5-.5h0l-.1-.1-.2-.2a8.18,8.18,0,0,1-.8-.9,30.15,30.15,0,0,1-2.1-3,8.33,8.33,0,0,1-1.1-3.6A4,4,0,0,1,39,94.9l-1-1.1a5.75,5.75,0,0,0-2.1,4.4,9.38,9.38,0,0,0,1.3,4.3,24.86,24.86,0,0,0,2.2,3.2,9,9,0,0,0,.9,1l.3.3.1.1h0ZM39,94.9a8.2,8.2,0,0,1,5.4-1.8,3.81,3.81,0,0,1,2.1.5,1.43,1.43,0,0,1,.6,1.2l1.5.1a2.64,2.64,0,0,0-1.3-2.6,5.74,5.74,0,0,0-2.9-.8,10.22,10.22,0,0,0-6.5,2.2Zm8.2-.1C47,96.6,46,97,45.5,97a.68.68,0,0,1-.6-.4c-.1-.2-.1-.6.3-1.4l-1.3-.7a3.31,3.31,0,0,0-.3,2.7,2.07,2.07,0,0,0,1.8,1.3c1.5.1,3.1-1.1,3.3-3.5Zm-2.7.1-.4-.7h0a.35.35,0,0,1-.2.1c-.1.1-.3.2-.5.4a6,6,0,0,0-1.3,1.4,2.58,2.58,0,0,0-.4,2.3,4.73,4.73,0,0,0,2,2.6l.9-1.2a3.08,3.08,0,0,1-1.4-1.7,1.38,1.38,0,0,1,.3-1.2,4.74,4.74,0,0,1,1-1,1.38,1.38,0,0,0,.4-.3.1.1,0,0,0,.1-.1h0C44.9,95.5,44.9,95.5,44.5,94.9Zm-.9,6.1a5,5,0,0,0,5.5,0,6.43,6.43,0,0,0,3.3-4.9L51,96a4.72,4.72,0,0,1-2.5,3.7,3.67,3.67,0,0,1-3.9.1Zm8.9-4.8a4.88,4.88,0,0,0-1.6-4.5,6.77,6.77,0,0,0-4.2-1.3,13.3,13.3,0,0,0-4.8,1A10.48,10.48,0,0,0,38,93.9l1.1,1a9.4,9.4,0,0,1,3.4-2.1,13.21,13.21,0,0,1,4.2-.9,4.83,4.83,0,0,1,3.3,1,3.66,3.66,0,0,1,1.1,3.2ZM37.9,93.8a13.91,13.91,0,0,0-3.9,7.4c-.6,3.5.1,8.1,3.6,14l1.3-.8c-3.4-5.6-3.9-9.9-3.4-13A12.51,12.51,0,0,1,39,94.8ZM11.6,155.9l-1.1,61.4H12l1.1-61.4Zm.6-34.4-.3,16h1.5l.3-16Zm.5-24.4-.1,6.5h1.5l.1-6.5Zm20.6,69.4,2.4,50.8,1.5-.1-2.4-50.8Zm-1.7-34.2,1.1,23,1.5-.1-1.1-23ZM30,97.2,31.3,124l1.5-.1L31.5,97.1Zm42.7,13.3-.7.2h0v.1a3.54,3.54,0,0,1,.1.6,7.88,7.88,0,0,1-.2,2c-.4,1.5-1.7,3.5-5.2,4.9l.6,1.4c3.9-1.6,5.5-3.9,6.1-5.9a8.35,8.35,0,0,0,.3-2.5c0-.3-.1-.6-.1-.8v-.3h0A4,4,0,0,1,72.7,110.5Zm-6,9.2a14.53,14.53,0,0,0,3.9.6,9.79,9.79,0,0,0,4.2-.7,3.74,3.74,0,0,0,1.5-1.3,3.14,3.14,0,0,0,.4-2.2c-.2-1.6-1.3-3.6-3.4-6.2l-1.1,1c2.1,2.5,2.9,4.2,3.1,5.4a1.55,1.55,0,0,1-.2,1.2,2.36,2.36,0,0,1-.9.8,7,7,0,0,1-3.4.5,11.58,11.58,0,0,1-3.5-.6Zm13.6-5.2-.7.3h0v.2a3.54,3.54,0,0,1,.1.6,4.69,4.69,0,0,1-.1,2c-.4,1.4-1.7,3.2-5.8,4.2l.3,1.5c4.5-1,6.3-3.2,6.9-5.2a6,6,0,0,0,.2-2.6,1.88,1.88,0,0,0-.2-.8.35.35,0,0,0-.1-.2v-.1h0C81,114.2,81,114.2,80.3,114.5Zm-6.4,8.6a18.27,18.27,0,0,0,3.9.7,8.73,8.73,0,0,0,4.3-.3,3.55,3.55,0,0,0,1.6-1.1,3,3,0,0,0,.5-2.1c-.1-1.6-1.2-3.6-3.3-6.4l-1.2.9c2.1,2.7,2.9,4.5,3,5.6a2.68,2.68,0,0,1-.2,1.1,3.49,3.49,0,0,1-.9.6,10.13,10.13,0,0,1-3.6.2,16.25,16.25,0,0,1-3.7-.7Zm3.8,4.1-.1.7h.3c.2,0,.5.1.8.1a21.82,21.82,0,0,0,2.4-.1,5.94,5.94,0,0,0,2.7-1.2,5.15,5.15,0,0,0,1.6-3.2l-1.5-.2a3.08,3.08,0,0,1-1.1,2.2,4,4,0,0,1-2,.9,14.8,14.8,0,0,1-2,.1,1.48,1.48,0,0,1-.7-.1h-.2C77.8,126.5,77.8,126.5,77.7,127.2Zm6.1-3.6a15,15,0,0,1,.5,5.5,2.19,2.19,0,0,1-.3.9.52.52,0,0,1-.4.2,5.07,5.07,0,0,1-.9-.2,4.58,4.58,0,0,1-1.3-.8c-1-.7-2.1-1.6-3.2-2.5l-1,1.1a38.45,38.45,0,0,0,3.4,2.6,6.47,6.47,0,0,0,1.6.9,4.19,4.19,0,0,0,1.5.4,1.93,1.93,0,0,0,1.5-.7,2.93,2.93,0,0,0,.7-1.6,18,18,0,0,0-.5-6.1ZM47.9,147.8l.7-.1h0v-.5a7.84,7.84,0,0,1,.2-1.4,3.64,3.64,0,0,1,2.3-2.7l-.5-1.4a5,5,0,0,0-3.2,3.7,5.88,5.88,0,0,0-.2,1.7v.7h0S47.2,147.9,47.9,147.8Zm3.2-4.7a4.51,4.51,0,0,0,3.3-3.4,7,7,0,0,0-1.1-4.3l-1.3.8a5.16,5.16,0,0,1,.9,3.3c-.1.8-.7,1.6-2.3,2.2Zm1.2-8a6.2,6.2,0,0,0-3.2,3.6,3.85,3.85,0,0,0,1.3,4.2l.9-1.2a2.38,2.38,0,0,1-.8-2.6,4.46,4.46,0,0,1,2.4-2.7Zm9.3,12.7.4.7h0a.1.1,0,0,0,.1-.1,1.38,1.38,0,0,1,.4-.3,3.64,3.64,0,0,0,1-1.1,2.84,2.84,0,0,0,.4-1.9,3.44,3.44,0,0,0-1.5-2l-.9,1.2a1.91,1.91,0,0,1,.9,1.1,1,1,0,0,1-.2.7,2.34,2.34,0,0,1-.7.7c-.1.1-.2.2-.3.2a.1.1,0,0,0-.1.1h0C61.3,147.2,61.3,147.2,61.6,147.8Zm.9-4.7c-1.4-1-2.6-1.8-3.3-3.9l-1.4.4a8.23,8.23,0,0,0,3.9,4.7Zm-4.7-3.8c-.7,3.7-.3,5.9.7,7.2a5,5,0,0,0,1.6,1.4,4.35,4.35,0,0,1,.7.4,2.19,2.19,0,0,1,.5.3l.8-1.3a4.88,4.88,0,0,0-.7-.3l-.6-.3a3.13,3.13,0,0,1-1.1-.9c-.6-.8-1.1-2.5-.4-6.1Zm3.4,9.2a1.54,1.54,0,0,1,.7.7,1.45,1.45,0,0,1,.2.7,3.7,3.7,0,0,1-.8,1.9,8.83,8.83,0,0,1-1.6,1.7c-.2.2-.5.4-.6.5s-.1.1-.2.1h0l.5.6.5.6H60l.2-.2a3.19,3.19,0,0,0,.7-.6c.5-.5,1.2-1.2,1.8-1.9a4.61,4.61,0,0,0,1.1-2.7,2.82,2.82,0,0,0-.4-1.5,3,3,0,0,0-1.3-1.2Zm-1.8,6.2.5.6h0a.1.1,0,0,0,.1-.1,1.38,1.38,0,0,1,.4-.3,7.88,7.88,0,0,1,1.6-.8,6,6,0,0,1,5.1.5l.7-1.3a7.24,7.24,0,0,0-6.3-.6c-.8.3-1.4.7-1.9.9-.2.2-.4.3-.5.4a.1.1,0,0,0-.1.1h0C58.9,154.2,58.9,154.2,59.4,154.7Zm7.6-.1c1,.6,1.4,1.2,1.4,1.6a1.57,1.57,0,0,1-.6,1.4,7.4,7.4,0,0,1-4.8,1.8l-.1,1.5a8.15,8.15,0,0,0,5.9-2.2,2.91,2.91,0,0,0,1-2.6,3.9,3.9,0,0,0-2.2-2.6Zm-3.5,6.1a5.67,5.67,0,0,0,2.4-4,4.44,4.44,0,0,0-1.8-4.3l-.9,1.2a3.15,3.15,0,0,1,1.2,2.9,4.16,4.16,0,0,1-1.8,3Zm-12.6-2,.6.4h0a.1.1,0,0,1,.1-.1,2.19,2.19,0,0,0,.3-.5,10.72,10.72,0,0,0,.6-1.7,11,11,0,0,0-.2-6.2l-1.4.4a10.09,10.09,0,0,1,.2,5.4c-.2.6-.4,1.1-.5,1.4s-.1.3-.2.4v.1h0C50.2,158.2,50.2,158.2,50.9,158.7Zm1.4-8.1a2.4,2.4,0,0,1,0-1.2,2.17,2.17,0,0,1,.8-.9,13.79,13.79,0,0,1,3-1.4l-.5-1.4a13.06,13.06,0,0,0-3.4,1.6,4.71,4.71,0,0,0-1.3,1.5,3.3,3.3,0,0,0-.1,2.2Zm2.9-4.6a2.89,2.89,0,0,0-.2,1.8c.1.5.3,1.1.4,1.5a1.86,1.86,0,0,1,.1,1c0,.2-.2.5-.6.8l.9,1.2a2.66,2.66,0,0,0,1.2-1.8,3.21,3.21,0,0,0-.2-1.7,9.29,9.29,0,0,1-.4-1.3.94.94,0,0,1,.1-.9Zm-.2,5.2a5.92,5.92,0,0,1-.6.4,8.79,8.79,0,0,1-1,.6,7.21,7.21,0,0,0-2,1.9l1.2.8a7.81,7.81,0,0,1,1.6-1.5l.9-.6a4.23,4.23,0,0,0,.7-.5Zm-2.7,13.1.5.5h0a.35.35,0,0,1,.2-.1,3.81,3.81,0,0,1,.6-.5,8.28,8.28,0,0,1,2.1-1.2,5.27,5.27,0,0,1,5.8.7l1-1.1a6.52,6.52,0,0,0-7.3-.9,10.12,10.12,0,0,0-2.4,1.4,4.35,4.35,0,0,0-.7.6l-.2.2h-.1C51.7,163.8,51.7,163.8,52.3,164.3Zm9.2-.6a3.53,3.53,0,0,1,1.1,1.8,2.25,2.25,0,0,1-.7,2l1.1,1a4,4,0,0,0,1-3.3,5.44,5.44,0,0,0-1.6-2.6Zm.5,3.8a3.69,3.69,0,0,1-1.4.8,7.12,7.12,0,0,1-2.1.4,13.43,13.43,0,0,1-1.9.1h-.8v1.4h.8a14.8,14.8,0,0,0,2-.1,10.27,10.27,0,0,0,2.4-.5,5,5,0,0,0,2.1-1.3Zm-6.3,2.1.1.7h.1a4.33,4.33,0,0,1,.5-.1,3.65,3.65,0,0,0,1.4-.7,4.91,4.91,0,0,0,2.2-3.9H58.5a3.2,3.2,0,0,1-1.5,2.7,9.74,9.74,0,0,1-1.1.5,1,1,0,0,0-.3.1h-.1C55.6,168.9,55.6,168.9,55.7,169.6Zm4.4-4a5.63,5.63,0,0,0-.7-3.2c-.2-.4-.4-.7-.5-.9s-.1-.2-.2-.2a.1.1,0,0,0-.1-.1h0l-.5.5-.5.5h0a.35.35,0,0,1,.1.2,3.11,3.11,0,0,1,.4.6,4.45,4.45,0,0,1,.5,2.5Zm-49-76.3h4.7V87.8H11.1ZM15.3,88l-4.7,4.8,1.1,1.1,4.7-4.8Zm-3.7,4.7L7.1,88.1,6,89.2l4.5,4.6ZM7.3,88.6V82.5H5.8v6.1Zm-.7-5.3H38.5V81.8H6.6Zm31.1-.7v5.3h1.5V82.6Zm.3,4.8-5.3,5.3,1.1,1.1,5.3-5.3Zm-4.3,5.3-4.8-4.8L27.8,89l4.8,4.8Zm-5.3-3.6h4.8V87.6H28.4ZM11.1,94H33.2V92.5H11.1Zm21.4-.8v3.3H34V93.2Zm.7,2.6H11.1v1.5H33.2Zm-21.3.7V93.3H10.4v3.2ZM8.6,218H39.4v-1.5H8.6Zm30-.7v8.6h1.5v-8.6Zm.8,7.9H8.6v1.5H39.4Zm-30.1.7v-8.6H7.8v8.6Zm31.6,5.5H7.1v1.5H40.9ZM7.7,232.5l3.5-6.2-1.3-.7-3.5,6.2Zm2.9-5.8H37.5v-1.5H10.6Zm26.2-.4,3.3,6.2,1.3-.7-3.3-6.2ZM5,232.9H42.9v-1.5H5Zm37.2-.8V239h1.5v-6.9Zm.7,6.2H5v1.5H42.9ZM5.8,239v-6.9H4.2V239Zm29.7-54.2c4.2-6.2,4.7-11.6,1.9-15.9s-8.2-7-15.2-8.4L22,162c6.9,1.4,11.9,4.1,14.2,7.8s2.1,8.3-1.9,14.2ZM22.3,160.5c-5.4-1.2-8.4-3.5-10.1-6.1a14.5,14.5,0,0,1-2.2-8H8.5a16.08,16.08,0,0,0,2.4,8.8c2,3,5.4,5.5,11.1,6.7ZM10,146.5a11.61,11.61,0,0,1,3.3-8.5l-1.1-1a13.3,13.3,0,0,0-3.6,9.4H10Zm1.9-9c0,1.7-.1,1.5-.1,4.4h1.5c0-3.1.1-2.5.1-4.4Zm-.1,4.4c0,1.5-.4,3.9.8,6.2s4,4.3,9.9,5.6l.3-1.5c-5.7-1.2-7.9-3-8.9-4.8s-.6-3.7-.6-5.4Zm10.7,11.8a82.34,82.34,0,0,1,12.9,3.9c1.5.6,2.7,1.2,3.5,1.6.4.2.7.4.9.5a.31.31,0,0,0,.2.1h.1l.4-.6.4-.6h-.1c-.1,0-.1-.1-.2-.1s-.5-.3-.9-.5a35.55,35.55,0,0,0-3.6-1.6,76.15,76.15,0,0,0-13.2-4Zm17.9,5.4.7.2h0v-.5c0-.3.1-.8.1-1.7.1-1.6.1-4.5-.1-9.3H39.6c.2,4.8.1,7.6.1,9.2,0,.8-.1,1.3-.1,1.6v.3h0C39.7,159,39.7,159,40.4,159.1Zm.8-11.3a20.43,20.43,0,0,0-2.7-9.3,19.5,19.5,0,0,0-5.7-6.8l-.8,1.2a18.84,18.84,0,0,1,5.3,6.3,19.76,19.76,0,0,1,2.5,8.7Zm-8.4-16.1a17.83,17.83,0,0,0-2-1c-.9-.4-2.1-1-3.4-1.5-2.5-1.2-5.4-2.5-7.3-3.5l-.7,1.3a74.44,74.44,0,0,0,7.4,3.5c1.3.6,2.5,1.1,3.4,1.5a13.6,13.6,0,0,1,1.8.9Zm-12.7-6.1a21.39,21.39,0,0,1-7.2-5.7,12.87,12.87,0,0,1-2.6-8.3H8.8a14.46,14.46,0,0,0,2.9,9.2,25.36,25.36,0,0,0,7.7,6.1Zm-9.8-13.9a9.36,9.36,0,0,1,1.7-5.9,5.63,5.63,0,0,1,1.1-1.1,1.44,1.44,0,0,1,.3-.2h.1l-.3-.7L13,103h0a.31.31,0,0,0-.2.1,2.19,2.19,0,0,1-.5.3,6.09,6.09,0,0,0-1.4,1.4,11,11,0,0,0-2,6.8h1.4Zm3-8h-.7v.6a9.74,9.74,0,0,1-.1,1.6c0,1.3-.1,2.7-.1,3.5h1.5c0-.8,0-2.2.1-3.5a7.59,7.59,0,0,1,.1-1.6v-.6h0S14,103.8,13.3,103.7Zm-.9,5.9c0,1.7,1,3.5,2.3,5.2a24.21,24.21,0,0,0,5,4.6l.8-1.3a21.29,21.29,0,0,1-4.7-4.3,7.74,7.74,0,0,1-2-4.3H12.4Zm7.3,9.8a66.51,66.51,0,0,0,11.8,5.8c3.4,1.4,5.8,2.7,7.4,5.2l1.3-.8c-1.8-2.9-4.7-4.3-8.1-5.8a60.87,60.87,0,0,1-11.5-5.7Zm20.5,10.4c-3.3-13.7-.5-21.3,3.7-25.3a14.87,14.87,0,0,1,13-3.8l.4-1.5a16.07,16.07,0,0,0-14.4,4.2c-4.7,4.5-7.4,12.7-4.1,26.7Zm16.7-29.1c3.2.8,5,1.9,6.1,3.4s1.5,3.3,1.6,5.8l1.5-.1c-.1-2.6-.5-4.8-1.9-6.6s-3.6-3.1-6.9-3.9Zm7.7,9.2a8.74,8.74,0,0,1-1.4,5.6,5.4,5.4,0,0,1-3.6,2.1c-2.8.3-6.3-1.4-8.2-5.1l-1.3.7c2.2,4.2,6.2,6.3,9.7,5.9a6.55,6.55,0,0,0,4.6-2.7,10.15,10.15,0,0,0,1.7-6.6Zm-13.2,2.6a5.76,5.76,0,0,1-.5-4.2,3.27,3.27,0,0,1,1.1-1.5,4.5,4.5,0,0,1,2.4-.8l-.1-1.5a6.68,6.68,0,0,0-3.1,1,4.81,4.81,0,0,0-1.7,2.3,6.83,6.83,0,0,0,.6,5.4Zm2.9-8.1a2.59,2.59,0,0,0-2,1.3,4.15,4.15,0,0,0-.3,2.5,7.4,7.4,0,0,0,3.2,5l.8-1.3a5.56,5.56,0,0,1-2.5-3.9,2.61,2.61,0,0,1,.2-1.6.89.89,0,0,1,.8-.5Zm.9,8.8a8.43,8.43,0,0,0,3.7,1,12.75,12.75,0,0,0,2-.1,3.63,3.63,0,0,0,1.7-.7l-1-1.1a3.36,3.36,0,0,1-1,.4,8.08,8.08,0,0,1-1.6.1,7.21,7.21,0,0,1-3-.8Zm7.4.1a7.68,7.68,0,0,0,2.2-7.4,10.14,10.14,0,0,0-1.2-3.2,4.25,4.25,0,0,0-2.1-1.9l-.5,1.4c.4.1.8.5,1.3,1.3a7.23,7.23,0,0,1,1,2.7,6.41,6.41,0,0,1-1.7,6Zm-1.1-12.4a14.3,14.3,0,0,0-15.2,4.3c-4,4.6-5.3,12.2-.7,22.6l1.4-.6c-4.5-10.1-3-17,.4-21A12.84,12.84,0,0,1,61,102.4ZM47,127.8a19.25,19.25,0,0,1,6.5-6.5A15.34,15.34,0,0,1,67.3,120l.5-1.4A17.09,17.09,0,0,0,52.7,120a19.7,19.7,0,0,0-7,7.1ZM67.3,120c5.3,2,8.7,5,10.4,9.1l1.4-.6c-1.9-4.6-5.7-7.9-11.3-10Zm10.4,9.1a12.05,12.05,0,0,1,1,6.6,9.86,9.86,0,0,1-1.7,4l1.2.9a10.77,10.77,0,0,0,2-4.7,13.89,13.89,0,0,0-1.1-7.4ZM77,139.7a7.27,7.27,0,0,1-4.4,2.4,8.92,8.92,0,0,1-5.2-.4l-.6,1.4a10.38,10.38,0,0,0,6.1.5,8.59,8.59,0,0,0,5.3-3Zm-9.6,2.1a7.84,7.84,0,0,1-4-3.5,8.16,8.16,0,0,1-.7-4.3,13.26,13.26,0,0,1,.9-3.8,7.26,7.26,0,0,1,.5-1.2.37.37,0,0,0,.1-.3v-.1h0l-.7-.3-.7-.4h0v.1c0,.1-.1.2-.2.4s-.3.7-.5,1.3a15.44,15.44,0,0,0-.9,4.2,9.41,9.41,0,0,0,.9,5.1,8.58,8.58,0,0,0,4.7,4.2Zm-3.8-13.6-.7-.3h0v.1a.31.31,0,0,1-.1.2c0,.2-.1.4-.1.7a5.68,5.68,0,0,0,.1,2.2c.4,1.8,1.6,4.1,4.8,6.1l.8-1.3c-2.9-1.9-3.8-3.8-4.1-5.2a4.77,4.77,0,0,1,0-1.7,4.33,4.33,0,0,1,.1-.5v-.1h0C64.3,128.5,64.3,128.5,63.6,128.2Zm3.9,9a6.74,6.74,0,0,0,3.6,1.2,7.12,7.12,0,0,0,4.1-1l-.7-1.3a6.69,6.69,0,0,1-3.4.8,6.3,6.3,0,0,1-2.9-1Zm7.7.3A6.76,6.76,0,0,0,79,129l-1.4.4a5.4,5.4,0,0,1-3,6.7Zm3.9-8.5a5.15,5.15,0,0,0-1.4-2.1,10.93,10.93,0,0,0-2.6-1.9,29.52,29.52,0,0,0-7.8-3l-.3,1.5a25.39,25.39,0,0,1,7.4,2.9,11.43,11.43,0,0,1,2.3,1.7,3.32,3.32,0,0,1,1,1.4Zm-11.9-7c-5.6-1.3-13,1.4-16.6,7.2l1.3.8c3.3-5.2,10.1-7.7,15-6.5Zm-16.6,7.2a19.23,19.23,0,0,0-3.1,6.8c-.6,2.7-.7,6.2-.5,11.9l1.5-.1c-.2-5.7-.1-9,.4-11.5a16.34,16.34,0,0,1,2.9-6.3Zm-3.5,18.6A85.87,85.87,0,0,0,48,158a12.68,12.68,0,0,0,.4,1.5c.1.1.1.3.2.4l.1.1a.1.1,0,0,1,.1.1h0l.3-.7.3-.7h0l.1.1.1.1v-.1a3.87,3.87,0,0,1-.3-1.2,83,83,0,0,1-.9-10Zm2.2,11.7.4.6h.1a.35.35,0,0,1,.2-.1,9.22,9.22,0,0,0,.8-.5c.7-.4,1.6-.9,2.6-1.4a33.74,33.74,0,0,1,6.1-2.7l-.4-1.4a35.48,35.48,0,0,0-6.4,2.9c-1,.6-2,1.1-2.7,1.5a9.22,9.22,0,0,1-.8.5.31.31,0,0,1-.2.1h-.1C48.9,158.9,48.9,158.9,49.3,159.5Zm9.3-5.2a16.42,16.42,0,0,1-1.7,2,39.29,39.29,0,0,0-2.8,3.4A28.65,28.65,0,0,0,49,170.8l1.5.3a27,27,0,0,1,4.8-10.5q1.5-1.95,2.7-3.3a13.42,13.42,0,0,0,1.8-2.2Zm-9.5,16.4c-1.8,9.2-2,13.3-2,22.7h1.5c0-9.3.1-13.3,1.9-22.4Zm-1.9,22.7a41.08,41.08,0,0,0,40.9,41.2v-1.5a39.61,39.61,0,0,1-39.4-39.7ZM13.3,102.5H31V101H13.3ZM70.5,46.7s0,.2-.4.5a3.41,3.41,0,0,1-1.6.4V49a4.75,4.75,0,0,0,2.4-.6,2.3,2.3,0,0,0,1.2-1.8H70.5Zm-2.1.8a3.41,3.41,0,0,1-1.6-.4c-.4-.2-.4-.4-.4-.5H64.9a2.3,2.3,0,0,0,1.2,1.8,4.5,4.5,0,0,0,2.4.6V47.5Zm36.6-3h3.1V43H105Zm6.1-1.5H108v1.5h3.1Zm-3.8.8v6.5h1.5V43.8Zm2.8,2.9s0,.2-.4.5a3.41,3.41,0,0,1-1.6.4V49a4.75,4.75,0,0,0,2.4-.6,2.3,2.3,0,0,0,1.2-1.8h-1.6Zm-2,.8a3.41,3.41,0,0,1-1.6-.4c-.4-.2-.4-.4-.4-.5h-1.5a2.3,2.3,0,0,0,1.2,1.8,4.5,4.5,0,0,0,2.4.6V47.5ZM88.2,40.4l-.5-.5h0l-.1.1-.3.3a8.65,8.65,0,0,1-1,.7,2.61,2.61,0,0,1-1.1.3.75.75,0,0,1-.7-.4l-1.2.9a2.46,2.46,0,0,0,1.9.9,3.74,3.74,0,0,0,1.8-.5c.5-.3.9-.6,1.3-.8a1.38,1.38,0,0,0,.4-.3l.1-.1h0Zm-3.8.4a2,2,0,0,1-.1-1.9,7.19,7.19,0,0,1,1.8-2.6l-1-1.1A9,9,0,0,0,83,38.3a3.45,3.45,0,0,0,.3,3.4Zm1.7-4.5a10.45,10.45,0,0,1,2.2-1.6,2.18,2.18,0,0,1,2.2-.1l.9-1.2a3.53,3.53,0,0,0-3.7-.1,9.69,9.69,0,0,0-2.6,1.8Zm4.4-1.6c.3.2.4.4.3.9a8.45,8.45,0,0,1-1,2.5l1.3.7a8.15,8.15,0,0,0,1.2-3.1,2.54,2.54,0,0,0-.9-2.3Zm-2.3,2-.4-.7h0a.1.1,0,0,0-.1.1,1.38,1.38,0,0,1-.4.3,6.53,6.53,0,0,0-1.1,1.2,4,4,0,0,0-.6,4.3l1.4-.6a2.57,2.57,0,0,1,.4-2.8,3.82,3.82,0,0,1,.9-.9c.1-.1.2-.2.3-.2a.1.1,0,0,0,.1-.1h0C88.6,37.3,88.6,37.3,88.2,36.7Zm2.7-2.6-.4.6h0a.1.1,0,0,1,.1.1l.3.3a3.22,3.22,0,0,1,.8,1.3c.4,1,.4,2.7-1.6,5l1.1,1c2.3-2.6,2.5-4.8,1.9-6.4a7.2,7.2,0,0,0-1-1.8c-.2-.2-.3-.4-.5-.5l-.1-.1h0C91.4,33.5,91.4,33.5,90.9,34.1ZM85.2,67.2V62.3H83.7v4.9ZM85,62.8l3.7-3.7L87.6,58,84,61.8Zm3.9-4.2V47.3H87.4V58.5h1.5ZM87.6,46.8,80.5,54l1.1,1.1,7.1-7.2Zm-7.3,7.7v5.2h1.5V54.5Zm.2,4.7-2.7,2.7L78.9,63l2.7-2.7Zm-1.6,2.7-3-3L74.8,60l3,3Zm-4.3-2.5v4.3h1.5V59.4Zm.3,4.8,3.3,3.3,1.1-1.1L76,63.1Zm3,2.8v1.9h1.5V67Zm1.5,1.9a.58.58,0,0,1-.1.4.1.1,0,0,1-.1.1h.1c.1,0,.2-.1.4-.2a6.45,6.45,0,0,1,1.4-.6,11.68,11.68,0,0,1,3.6-.8V66.3a11.15,11.15,0,0,0-4.1.9,11.64,11.64,0,0,0-1.5.6c-.2.1-.3.2-.5.2s-.1.1-.2.1a.1.1,0,0,0-.1.1l-.1.1a.77.77,0,0,0-.2.5h1.4Zm5.1-7.4H83.1V63h1.4Zm-1.8.2-1.8,1.2.8,1.2,1.8-1.2Zm-2.2,1.9v4.2H82V63.6Zm4,4.3h3.6V66.4H84.5Zm-5.8.9-.3-.7h-.1c-.1,0-.2.1-.3.2a2.31,2.31,0,0,0-.7.7,1.69,1.69,0,0,0-.1,1.4,3.6,3.6,0,0,0,1.1,1.4l.9-1.2a1.49,1.49,0,0,1-.6-.7v-.2q0-.15.3-.3a.1.1,0,0,0,.1-.1h0C79,69.5,79,69.5,78.7,68.8Zm-.4,3.1a3,3,0,0,0,.8.4,3.59,3.59,0,0,0,1.1.2,20.22,20.22,0,0,0,2.7.3c2,.2,4.1.3,5.2.3V71.6c-1.1,0-3.1-.1-5.1-.3-1-.1-1.9-.2-2.6-.3a6.37,6.37,0,0,1-.9-.2c-.1,0-.2-.1-.3-.1h-.1Zm14.3-4.7V62.3H91.1v4.9Zm-.2-5.4-3.7-3.7-1.1,1.1,3.7,3.7ZM87.6,47.9l7.1,7.2L95.8,54l-7.1-7.2Zm6.9,6.6v5.2H96V54.5Zm.2,5.8L97.4,63l1.1-1.1-2.7-2.7ZM98.5,63l3-3-1.1-1.1-3,3Zm1.7-3.6v4.3h1.5V59.4Zm.2,3.8-3.3,3.3,1.1,1.1,3.3-3.3ZM96.9,67v1.9h1.5V67Zm1.5,1.9a.59.59,0,0,0-.2-.5.1.1,0,0,0-.1-.1l-.1-.1c-.1,0-.1-.1-.2-.1s-.3-.1-.5-.2a11.64,11.64,0,0,0-1.5-.6,13.62,13.62,0,0,0-4.1-.9v1.5a12.34,12.34,0,0,1,3.6.8,9.75,9.75,0,0,1,1.4.6c.2.1.3.1.4.2h.1a.1.1,0,0,1-.1-.1A1,1,0,0,1,97,69h1.4ZM91.8,63h1.4V61.5H91.8Zm1,0,1.8,1.2.8-1.2-1.8-1.2Zm1.4.5v4.3h1.5V63.5Zm-2.4,2.9H88.2v1.5h3.6Zm5.8,2.4-.3.7h0a.1.1,0,0,1,.1.1l.3.3v.2c0,.1-.2.3-.6.7L98,72a2.39,2.39,0,0,0,1.1-1.4,1.69,1.69,0,0,0-.1-1.4,2.31,2.31,0,0,0-.7-.7c-.1-.1-.2-.1-.3-.2h-.1C97.9,68.1,97.9,68.1,97.6,68.8Zm-.5,1.9h0a.6.6,0,0,1-.4.1,6.37,6.37,0,0,1-.9.2c-.7.1-1.6.2-2.6.3-1.9.2-4,.3-5.1.3v1.5c1.1,0,3.2-.1,5.2-.3q1.5-.15,2.7-.3a5.16,5.16,0,0,1,1.1-.2,2,2,0,0,0,.8-.4Zm-1.2,29.9H80.4v1.5H95.9Zm-14.8,1.1,1.4-3.5-1.4-.5-1.4,3.5Zm.7-3H94.6V97.2H81.8Zm12-.5,1.4,3.5,1.4-.6-1.4-3.5ZM80.9,90.1h0Zm.7-3.7a6.2,6.2,0,0,1,.3-1.1,9.47,9.47,0,0,1,.9-1.7,4.9,4.9,0,0,1,3.8-2.1V80a6.3,6.3,0,0,0-5,2.7,8.08,8.08,0,0,0-1.1,2,6.18,6.18,0,0,0-.4,1.6h1.5Zm5-5.6-.5-.6h0l-.1.1c-.1.1-.2.1-.3.3a4.87,4.87,0,0,0-.8,1,6.17,6.17,0,0,0-1.2,3.6h1.5a4.59,4.59,0,0,1,.9-2.7c.2-.3.5-.6.6-.8l.2-.2H87C87.1,81.4,87.1,81.4,86.6,80.8Zm-2.1,5h1.8V84.3H84.5Zm1.1-.7v3.2h1.5V85.1Zm.7,2.4H84.5V89h1.8Zm-2.5.8v1.9h1.5V88.3Zm.8,1.1-3.7-.1v1.5l3.7.1Zm1.7-3.6H96.4V84.3H86.3Zm9.4-.7v3.2h1.5V85.1Zm.7,2.4H86.3V89H96.4Zm-9.3.7V85H85.6v3.2Zm7.4,10.5h3.9V97.2H94.5Zm4.3-.1,3.8-1.8-.7-1.3-3.8,1.8Zm3.8-3.2-3.8-1.8-.7,1.3,3.8,1.8ZM77.5,93.6l-3.8,1.8.7,1.3,3.8-1.8Zm-3.8,3.2,3.8,1.8.7-1.3-3.8-1.8Zm4.1,1.9h4V97.2h-4ZM20.7,30a4.46,4.46,0,0,1-4.4,4.5V36a5.93,5.93,0,0,0,5.9-6Zm-4.4,4.5A4.46,4.46,0,0,1,11.9,30H10.4a5.93,5.93,0,0,0,5.9,6ZM11.9,30a4.46,4.46,0,0,1,4.4-4.5V24a5.93,5.93,0,0,0-5.9,6Zm4.4-4.4a4.46,4.46,0,0,1,4.4,4.5h1.5a5.93,5.93,0,0,0-5.9-6Zm-.1,7.5A1.16,1.16,0,0,1,15,34.3v1.5a2.69,2.69,0,0,0,2.7-2.7Zm-1.1,1.1A1.22,1.22,0,0,1,13.9,33H12.4a2.69,2.69,0,0,0,2.7,2.7Zm-1.2-1.1a1.16,1.16,0,0,1,1.2-1.2V30.4a2.69,2.69,0,0,0-2.7,2.7Zm1.2-1.2a1.22,1.22,0,0,1,1.2,1.2h1.5a2.69,2.69,0,0,0-2.7-2.7Zm6.1-3.6.7.3h0a.31.31,0,0,1,.1-.2c.1-.1.2-.3.4-.4a.76.76,0,0,1,.5-.2,1.93,1.93,0,0,1,1.1.5l.9-1.2a4.32,4.32,0,0,0-1.9-.8,2.46,2.46,0,0,0-1.5.5,2.3,2.3,0,0,0-.7.8c-.1.1-.1.2-.2.3V28h0C20.5,28,20.5,28,21.2,28.3Zm143.1-.4a4.46,4.46,0,0,1-4.4,4.5v1.5a5.93,5.93,0,0,0,5.9-6Zm-4.4,4.4a4.46,4.46,0,0,1-4.4-4.5H154a5.93,5.93,0,0,0,5.9,6Zm-4.4-4.4a4.46,4.46,0,0,1,4.4-4.5V21.9a5.93,5.93,0,0,0-5.9,6Zm4.4-4.5a4.46,4.46,0,0,1,4.4,4.5h1.5a5.93,5.93,0,0,0-5.9-6ZM155,26.1l.7-.3h0v-.1c0-.1-.1-.2-.2-.3a2.51,2.51,0,0,0-.7-.8,2.46,2.46,0,0,0-1.5-.5,3.4,3.4,0,0,0-1.9.8l.9,1.2a1.71,1.71,0,0,1,1.1-.5.76.76,0,0,1,.5.2l.4.4c0,.1.1.1.1.2h0C154.3,26.4,154.3,26.4,155,26.1Zm-1,1.8v4.8h1.5V27.9Zm.7,4.8H154v.1a.37.37,0,0,1-.1.3.35.35,0,0,1-.1.2.44.44,0,0,1-.3.1v1.5a1.59,1.59,0,0,0,1.2-.4,1.56,1.56,0,0,0,.6-.8,2.54,2.54,0,0,0,.2-.7v-.3h-.8Zm2.6.5,3.3,3.3,1.1-1.1-3.3-3.3Zm3.9,3.5h2.1V35.2h-2.1Zm2.1-11.2a1.16,1.16,0,0,1-1.2,1.2v1.5a2.69,2.69,0,0,0,2.7-2.7Zm-1.1,1.1a1.22,1.22,0,0,1-1.2-1.2h-1.5a2.69,2.69,0,0,0,2.7,2.7ZM161,25.5a1.16,1.16,0,0,1,1.2-1.2V22.8a2.69,2.69,0,0,0-2.7,2.7Zm1.2-1.2a1.22,1.22,0,0,1,1.2,1.2h1.5a2.69,2.69,0,0,0-2.7-2.7ZM15.6,35.2h0v.1h0Zm110.7,87.1a12.28,12.28,0,0,1,1.1-5.3,22.85,22.85,0,0,1,5-6.9l-1.1-1a26.54,26.54,0,0,0-5.3,7.4,15.14,15.14,0,0,0-1.2,5.9h1.5Zm8.8-15.8.5.5h0l.1-.1.3-.3a11.15,11.15,0,0,0,.9-1,13.75,13.75,0,0,0,2.2-3.2,9.38,9.38,0,0,0,1.3-4.3,5.6,5.6,0,0,0-2.1-4.4l-1,1.1a4.17,4.17,0,0,1,1.6,3.3,7.17,7.17,0,0,1-1.1,3.6,14.37,14.37,0,0,1-2.1,3,8.18,8.18,0,0,1-.8.9l-.2.2-.1.1h0C134.6,106,134.6,106,135.1,106.5Zm3.2-12.8a10.22,10.22,0,0,0-6.5-2.2,4.7,4.7,0,0,0-2.9.8,2.82,2.82,0,0,0-1.3,2.6l1.5-.1a1.21,1.21,0,0,1,.6-1.2,4.06,4.06,0,0,1,2.1-.5,9,9,0,0,1,5.4,1.8Zm-10.7,1.2c.2,2.4,1.8,3.7,3.3,3.5a2.07,2.07,0,0,0,1.8-1.3,3.31,3.31,0,0,0-.3-2.7l-1.3.7a2.24,2.24,0,0,1,.3,1.4.92.92,0,0,1-.6.4c-.5,0-1.5-.4-1.7-2.2Zm4.2,0-.4.7h0a.1.1,0,0,1,.1.1,1.38,1.38,0,0,0,.4.3,9.43,9.43,0,0,1,1,1,1.8,1.8,0,0,1,.3,1.2,3.08,3.08,0,0,1-1.4,1.7l.9,1.2a4.73,4.73,0,0,0,2-2.6,3,3,0,0,0-.5-2.3,6,6,0,0,0-1.3-1.4c-.2-.2-.4-.3-.5-.4s-.1-.1-.2-.1h0C132.1,94.2,132.1,94.2,131.8,94.9Zm0,4.9a3.47,3.47,0,0,1-3.9-.1,4.64,4.64,0,0,1-2.5-3.7l-1.5.1a6.27,6.27,0,0,0,3.3,4.9c1.7.9,3.9,1.2,5.5,0ZM125.3,96a3.66,3.66,0,0,1,1.1-3.2,5.4,5.4,0,0,1,3.3-1,10.23,10.23,0,0,1,4.2.9,9.4,9.4,0,0,1,3.4,2.1l1.1-1a11.89,11.89,0,0,0-3.9-2.5,13.3,13.3,0,0,0-4.8-1,6.58,6.58,0,0,0-4.2,1.3,4.88,4.88,0,0,0-1.6,4.5Zm12-1.2a12.51,12.51,0,0,1,3.5,6.6c.5,3.1,0,7.3-3.4,13l1.3.8c3.5-5.9,4.2-10.5,3.6-14a14.31,14.31,0,0,0-3.9-7.4ZM163.1,156l1.1,61.4h1.5L164.6,156Zm-.6-34.5.3,16h1.5l-.3-16Zm-.4-24.3.1,6.5h1.5l-.1-6.5Zm-20.6,69.2-2.4,50.8,1.5.1,2.4-50.8Zm1.6-34.2-1.1,23,1.5.1,1.1-23Zm1.6-35.1-1.3,26.8,1.5.1,1.3-26.8Zm-41.2,13.4-.7-.2h0v.3c0,.2-.1.4-.1.8a8.35,8.35,0,0,0,.3,2.5c.6,2,2.2,4.3,6.1,5.9l.6-1.4c-3.5-1.4-4.8-3.4-5.2-4.9a7.88,7.88,0,0,1-.2-2,1.27,1.27,0,0,1,.1-.6v-.1h0A4,4,0,0,0,103.5,110.5Zm5.5,7.8a15.84,15.84,0,0,1-3.5.6,8.42,8.42,0,0,1-3.4-.5,2.36,2.36,0,0,1-.9-.8,1.55,1.55,0,0,1-.2-1.2c.1-1.1,1-2.9,3.1-5.4l-1.1-1c-2.2,2.6-3.2,4.6-3.4,6.2a3.36,3.36,0,0,0,.4,2.2,3.74,3.74,0,0,0,1.5,1.3,8.3,8.3,0,0,0,4.2.7,13.9,13.9,0,0,0,3.9-.6Zm-13.1-3.8-.7-.3h0v.1c0,.1,0,.1-.1.2s-.1.5-.2.8a6,6,0,0,0,.2,2.6c.6,2.1,2.4,4.2,6.9,5.2l.3-1.5c-4.1-.9-5.4-2.8-5.8-4.2a4.58,4.58,0,0,1-.1-2,3.54,3.54,0,0,1,.1-.6v-.2h0C96.6,114.7,96.6,114.7,95.9,114.5Zm6.1,7.2c-1,.2-2.3.5-3.7.7a10.13,10.13,0,0,1-3.6-.2,3.49,3.49,0,0,1-.9-.6,1.23,1.23,0,0,1-.2-1.1c.1-1.1.9-2.9,3-5.6l-1.2-.9c-2.2,2.7-3.2,4.8-3.3,6.4a3,3,0,0,0,.5,2.1,2.92,2.92,0,0,0,1.6,1.1,12,12,0,0,0,4.3.3c1.5-.2,2.9-.5,3.9-.7Zm-3.4,5.5-.1-.7h-.2a2,2,0,0,0-.7.1,14.08,14.08,0,0,1-2-.1,3.67,3.67,0,0,1-2-.9,3.56,3.56,0,0,1-1.1-2.2l-1.5.2a5.15,5.15,0,0,0,1.6,3.2,5,5,0,0,0,2.7,1.2,6.69,6.69,0,0,0,2.4.1c.3,0,.6-.1.8-.1h.3A3.15,3.15,0,0,0,98.6,127.2ZM91,123.3a17.83,17.83,0,0,0-.5,6.1,2.41,2.41,0,0,0,2.2,2.3,2.82,2.82,0,0,0,1.5-.4,8.94,8.94,0,0,0,1.6-.9c1.1-.7,2.2-1.7,3.4-2.6l-1-1.1c-1.1.9-2.2,1.8-3.2,2.5-.5.3-.9.6-1.3.8a1.83,1.83,0,0,1-.9.2.52.52,0,0,1-.4-.2,1.3,1.3,0,0,1-.3-.9,15,15,0,0,1,.5-5.5Zm37.4,24.5.7.1h0v-.7a11.14,11.14,0,0,0-.2-1.7,5,5,0,0,0-3.2-3.7l-.5,1.4a3.64,3.64,0,0,1,2.3,2.7,7.84,7.84,0,0,1,.2,1.4v.5h0C127.6,147.7,127.6,147.7,128.4,147.8Zm-2.7-6.1c-1.6-.6-2.2-1.4-2.3-2.2a5.88,5.88,0,0,1,.9-3.3l-1.3-.8a6.35,6.35,0,0,0-1.1,4.3c.2,1.5,1.3,2.7,3.3,3.4Zm-2.4-5.2a4.46,4.46,0,0,1,2.4,2.7,2.23,2.23,0,0,1-.8,2.6l.9,1.2a3.85,3.85,0,0,0,1.3-4.2,5.92,5.92,0,0,0-3.2-3.6Zm-8.7,11.3.4-.7h0l-.1-.1c-.1,0-.2-.1-.3-.2a4.62,4.62,0,0,1-.7-.7,1.08,1.08,0,0,1-.2-.7c0-.2.2-.6.9-1.1l-.9-1.2a3.93,3.93,0,0,0-1.5,2,2.47,2.47,0,0,0,.4,1.9,5.47,5.47,0,0,0,1,1.1,1.38,1.38,0,0,1,.4.3.1.1,0,0,1,.1.1h0C114.3,148.5,114.3,148.5,114.6,147.8Zm0-3.4c1.4-1,3.1-2.1,3.9-4.7l-1.4-.4a6.52,6.52,0,0,1-3.3,3.9Zm2.4-4.9c.6,3.6.2,5.2-.4,6.1a3.13,3.13,0,0,1-1.1.9l-.6.3a4.88,4.88,0,0,1-.7.3l.8,1.3a2.19,2.19,0,0,1,.5-.3,2.51,2.51,0,0,0,.7-.4,5,5,0,0,0,1.6-1.4c.9-1.3,1.3-3.5.7-7.2Zm-2.7,7.7a3,3,0,0,0-1.3,1.2,2.82,2.82,0,0,0-.4,1.5,4.61,4.61,0,0,0,1.1,2.7,8.29,8.29,0,0,0,1.8,1.9,4.35,4.35,0,0,1,.7.6c.1.1.2.1.2.2h.1l.5-.6.5-.6h0a.35.35,0,0,0-.2-.1,2.65,2.65,0,0,1-.6-.5c-.5-.5-1.1-1.1-1.6-1.7a3.4,3.4,0,0,1-.8-1.9,1,1,0,0,1,.2-.7,2.23,2.23,0,0,1,.7-.7Zm2.6,7.5.5-.6h0l-.1-.1c-.1-.1-.3-.2-.5-.4a5.61,5.61,0,0,0-1.9-.9,7.24,7.24,0,0,0-6.3.6l.7,1.3a6,6,0,0,1,5.1-.5,4.77,4.77,0,0,1,1.6.8,1.38,1.38,0,0,1,.4.3l.1.1h0C116.4,155.3,116.4,155.3,116.9,154.7Zm-8.4-1.4a4.19,4.19,0,0,0-2.2,2.6,2.91,2.91,0,0,0,1,2.6,8.15,8.15,0,0,0,5.9,2.2l-.1-1.5a6.65,6.65,0,0,1-4.8-1.8,1.57,1.57,0,0,1-.6-1.4,2.69,2.69,0,0,1,1.4-1.6Zm5.1,6.1a4.5,4.5,0,0,1-1.8-3,3,3,0,0,1,1.2-2.9l-.9-1.2a4.36,4.36,0,0,0-1.8,4.3,5.81,5.81,0,0,0,2.4,4Zm11.8-.7.6-.4h0l-.1-.1c0-.1-.1-.2-.2-.4a3.75,3.75,0,0,1-.5-1.4,10.09,10.09,0,0,1,.2-5.4l-1.4-.4a11,11,0,0,0-.2,6.2,10.72,10.72,0,0,0,.6,1.7,2.19,2.19,0,0,0,.3.5.1.1,0,0,0,.1.1h0Zm0-7.7a3.26,3.26,0,0,0-.1-2.2,4.71,4.71,0,0,0-1.3-1.5,10.47,10.47,0,0,0-3.4-1.6l-.5,1.4a13.79,13.79,0,0,1,3,1.4,2.17,2.17,0,0,1,.8.9,1.63,1.63,0,0,1,0,1.2Zm-5.7-4.3a2.22,2.22,0,0,1,.1.9,9.29,9.29,0,0,1-.4,1.3,4.68,4.68,0,0,0-.2,1.7,2.66,2.66,0,0,0,1.2,1.8l.9-1.2c-.4-.3-.6-.6-.6-.8a3.75,3.75,0,0,1,.1-1c.1-.4.3-1,.4-1.5a2.82,2.82,0,0,0-.2-1.8Zm.6,5.7c.2.1.4.3.7.5l.9.6a5.85,5.85,0,0,1,1.6,1.5l1.2-.8a7.21,7.21,0,0,0-2-1.9c-.4-.2-.7-.5-1-.6a5.92,5.92,0,0,1-.6-.4Zm3.7,11.9.5-.5h-.1l-.2-.2a3.19,3.19,0,0,1-.7-.6,12.7,12.7,0,0,0-2.4-1.4,6.69,6.69,0,0,0-7.3.9l1,1.1a5.27,5.27,0,0,1,5.8-.7,9.75,9.75,0,0,1,2.1,1.2,3.81,3.81,0,0,1,.6.5c.1.1.1.1.2.1h0S123.5,164.9,124,164.3Zm-10.2-1.7a5.44,5.44,0,0,0-1.6,2.6,4,4,0,0,0,1,3.3l1.1-1a2.33,2.33,0,0,1-.7-2,3.53,3.53,0,0,1,1.1-1.8Zm-.6,5.8a5,5,0,0,0,2.1,1.3,10.27,10.27,0,0,0,2.4.5,15.56,15.56,0,0,0,2,.1h.8v-1.4h-.8a13.43,13.43,0,0,1-1.9-.1,13,13,0,0,1-2.1-.4,3,3,0,0,1-1.4-.8Zm7.4,1.2.1-.7h-.1a.37.37,0,0,1-.3-.1,9.74,9.74,0,0,1-1.1-.5,3.2,3.2,0,0,1-1.5-2.7h-1.5a4.67,4.67,0,0,0,2.2,3.9c.5.3,1,.5,1.4.7a.9.9,0,0,0,.5.1h.1Zm-2.9-4a5.51,5.51,0,0,1,.5-2.5,1.54,1.54,0,0,1,.4-.6c.1-.1.1-.1.1-.2h0l-.5-.5-.5-.5h0l-.1.1c0,.1-.1.1-.2.2a3.6,3.6,0,0,0-.5.9,5.63,5.63,0,0,0-.7,3.2Zm47.5-77.8h-4.7v1.5h4.7ZM159.9,89l4.7,4.8,1.1-1.1L161,88Zm5.7,4.8,4.6-4.6-1.1-1.1-4.6,4.6Zm4.8-5.2V82.5h-1.5v6.1Zm-.7-6.8H137.8v1.5h31.9Zm-32.7.8v5.3h1.5V82.6Zm.2,5.8,5.3,5.3,1.1-1.1-5.3-5.3Zm6.4,5.3,4.8-4.8-1.1-1.1-4.8,4.8Zm4.3-6.1h-4.8v1.5h4.8Zm17.2,4.9h-22V94h22Zm-22.8.7v3.3h1.5V93.2Zm.8,4.1h22V95.8h-22Zm22.8-.8V93.3h-1.5v3.2Zm1.8,128.7H136.9v1.5h30.8Zm-30.1.8v-8.6h-1.5V226Zm-.7-7.9h30.8v-1.5H136.9Zm30-.8v8.6h1.5v-8.6Zm-31.5,15.6h33.7v-1.5H135.4Zm34.4-1.1-3.5-6.2-1.3.7,3.5,6.2Zm-4.1-6.6H138.8v1.5h26.9Zm-27.6.4-3.3,6.2,1.3.7,3.3-6.2Zm33.2,12.7H133.4v1.5h37.9v-1.5Zm-37.2.8v-6.9h-1.5v6.9Zm-.8-6.2h37.9v-1.5H133.3v1.5Zm37.2-.7v6.9H172v-6.9ZM142,184c-4-6-4.2-10.7-1.9-14.2s7.3-6.3,14.2-7.8l-.3-1.5c-7,1.5-12.5,4.3-15.2,8.4s-2.3,9.6,1.9,15.9Zm12.3-22c5.7-1.2,9.1-3.8,11.1-6.7a15.27,15.27,0,0,0,2.4-8.8h-1.5a13.91,13.91,0,0,1-2.2,8c-1.7,2.6-4.8,4.9-10.1,6.1Zm13.5-15.5a13.1,13.1,0,0,0-3.6-9.4l-1.1,1a12,12,0,0,1,3.3,8.5h1.4Zm-5-9c0,1.9.1,1.4.1,4.4h1.5c0-3-.1-2.7-.1-4.4Zm.2,4.5c0,1.8.4,3.6-.6,5.4s-3.2,3.6-8.9,4.8l.3,1.5c5.9-1.2,8.7-3.2,9.9-5.6s.8-4.7.8-6.2Zm-9.5,10.2a76.15,76.15,0,0,0-13.2,4,35.55,35.55,0,0,0-3.6,1.6c-.4.2-.7.4-.9.5a.31.31,0,0,1-.2.1h-.1l.4.6.4.6h.1a.35.35,0,0,1,.2-.1c.2-.1.5-.3.9-.5.8-.4,2-.9,3.5-1.6a75.54,75.54,0,0,1,12.9-3.9Zm-17.7,6.9.7-.2h0v-.3c0-.3-.1-.8-.1-1.6-.1-1.6-.1-4.4.1-9.2H135c-.2,4.9-.1,7.7-.1,9.3,0,.8.1,1.3.1,1.7v.5h0A3.15,3.15,0,0,0,135.8,159.1Zm.7-11.2a20.14,20.14,0,0,1,2.5-8.7,18.84,18.84,0,0,1,5.3-6.3l-.8-1.2a19.35,19.35,0,0,0-5.7,6.8,22.58,22.58,0,0,0-2.7,9.3Zm7.8-15a6.91,6.91,0,0,1,1.8-.9c.9-.4,2.1-1,3.4-1.5,2.5-1.1,5.4-2.5,7.4-3.5l-.7-1.3c-1.9,1-4.7,2.3-7.3,3.5-1.3.6-2.5,1.1-3.4,1.5a17.83,17.83,0,0,0-2,1Zm12.6-6a23.93,23.93,0,0,0,7.7-6.1,14.26,14.26,0,0,0,2.9-9.2H166a12.87,12.87,0,0,1-2.6,8.3,23.88,23.88,0,0,1-7.2,5.7Zm10.5-15.2a11,11,0,0,0-2-6.8,6.09,6.09,0,0,0-1.4-1.4,2.19,2.19,0,0,1-.5-.3c-.1,0-.1-.1-.2-.1h0l-.3.7-.3.7h.1c.1,0,.2.1.3.2a5.63,5.63,0,0,1,1.1,1.1,9.59,9.59,0,0,1,1.7,5.9Zm-4.4-8h-.7v.6a9.74,9.74,0,0,0,.1,1.6c0,1.3.1,2.7.1,3.5H164c0-.8,0-2.3-.1-3.5a7.59,7.59,0,0,0-.1-1.6v-.6H163Zm-.6,5.9a7.74,7.74,0,0,1-2,4.3,24,24,0,0,1-4.7,4.3l.8,1.3a24.21,24.21,0,0,0,5-4.6c1.3-1.7,2.3-3.6,2.3-5.2h-1.4Zm-6.7,8.5a60.87,60.87,0,0,1-11.5,5.7c-3.3,1.4-6.2,2.9-8.1,5.8l1.3.8c1.5-2.5,4-3.8,7.4-5.2a66.51,66.51,0,0,0,11.8-5.8Zm-18.2,12.1c3.4-14,.6-22.2-4.1-26.7A16.14,16.14,0,0,0,119,99.3l.4,1.5a14.87,14.87,0,0,1,13,3.8c4.2,4,6.9,11.6,3.7,25.3ZM119,99.2c-3.4.8-5.6,2.1-6.9,3.9s-1.8,4.1-1.9,6.6l1.5.1a10.2,10.2,0,0,1,1.6-5.8c1.1-1.5,2.9-2.6,6.1-3.4Zm-8.9,10.6a10.15,10.15,0,0,0,1.7,6.6,6.92,6.92,0,0,0,4.6,2.7c3.6.4,7.6-1.7,9.7-5.9l-1.3-.7c-1.9,3.7-5.4,5.4-8.2,5.1a5,5,0,0,1-3.6-2.1,8.74,8.74,0,0,1-1.4-5.6Zm16.1,3.4a7.28,7.28,0,0,0,.6-5.4,4.25,4.25,0,0,0-1.7-2.3,5.22,5.22,0,0,0-3.1-1l-.1,1.5a4.84,4.84,0,0,1,2.4.8,3.27,3.27,0,0,1,1.1,1.5,5.66,5.66,0,0,1-.5,4.2Zm-4.4-7.3a.89.89,0,0,1,.8.5,2.49,2.49,0,0,1,.2,1.6,5.9,5.9,0,0,1-2.5,3.9l.8,1.3a7,7,0,0,0,3.2-5,5.24,5.24,0,0,0-.3-2.5,2.37,2.37,0,0,0-2-1.3Zm-1.6,6a6.78,6.78,0,0,1-3,.8,7.59,7.59,0,0,1-1.6-.1,1.88,1.88,0,0,1-1-.4l-1,1.1a3.63,3.63,0,0,0,1.7.7,12.75,12.75,0,0,0,2,.1,8.43,8.43,0,0,0,3.7-1Zm-5.5.3a6.18,6.18,0,0,1-1.7-6,9.5,9.5,0,0,1,1-2.7,3.83,3.83,0,0,1,1.3-1.3l-.5-1.4a4.7,4.7,0,0,0-2.1,1.9,8.2,8.2,0,0,0-1.2,3.2,7.68,7.68,0,0,0,2.2,7.4Zm.6-9.9a13,13,0,0,1,13.6,3.8c3.5,4,4.9,10.9.4,21l1.4.6c4.7-10.5,3.3-18-.7-22.6a14.68,14.68,0,0,0-15.2-4.3Zm15.4,24.8a20.61,20.61,0,0,0-7-7.1,16.77,16.77,0,0,0-15.1-1.4l.5,1.4a15.34,15.34,0,0,1,13.8,1.3,19.35,19.35,0,0,1,6.5,6.5Zm-22.2-8.5c-5.6,2.1-9.4,5.4-11.3,10l1.4.6c1.7-4.1,5.1-7.2,10.4-9.1Zm-11.3,9.9a13,13,0,0,0-1.1,7.4,10.77,10.77,0,0,0,2,4.7l1.2-.9a8.67,8.67,0,0,1-1.7-4,12.05,12.05,0,0,1,1-6.6Zm.9,12.1a8.59,8.59,0,0,0,5.3,3,10.38,10.38,0,0,0,6.1-.5l-.6-1.4a9.83,9.83,0,0,1-5.2.4,7.27,7.27,0,0,1-4.4-2.4Zm11.4,2.6a8.58,8.58,0,0,0,4.7-4.2,10.44,10.44,0,0,0,.9-5.1,20.41,20.41,0,0,0-.9-4.2c-.2-.5-.4-1-.5-1.3s-.1-.3-.2-.4v-.1h0l-.7.4-.7.3h0v.1c0,.1.1.2.1.3.1.3.3.7.5,1.2a16.35,16.35,0,0,1,.9,3.8,7.15,7.15,0,0,1-4.7,7.8Zm3.2-15-.7.3h0v.1a4.33,4.33,0,0,1,.1.5,4.77,4.77,0,0,1,0,1.7c-.3,1.4-1.2,3.3-4.1,5.2l.8,1.3c3.2-2.1,4.4-4.3,4.8-6.1a8.76,8.76,0,0,0,.1-2.2c0-.3-.1-.5-.1-.7s0-.1-.1-.2V128h0C113.4,127.9,113.4,127.9,112.7,128.2Zm-4.7,7.7a6.3,6.3,0,0,1-2.9,1,7.92,7.92,0,0,1-3.4-.8l-.7,1.3a9.15,9.15,0,0,0,4.1,1,7.71,7.71,0,0,0,3.6-1.2Zm-6.3.2a5.35,5.35,0,0,1-3-6.7l-1.4-.4a6.85,6.85,0,0,0,3.8,8.5Zm-3-6.7a2.82,2.82,0,0,1,1-1.4,17.19,17.19,0,0,1,2.3-1.7,28.54,28.54,0,0,1,7.4-2.9L109,122a27,27,0,0,0-7.8,3,19.5,19.5,0,0,0-2.6,1.9,4.12,4.12,0,0,0-1.4,2.1Zm10.7-5.9c5-1.2,11.7,1.3,15,6.5l1.3-.8c-3.7-5.7-11-8.5-16.6-7.2Zm15,6.5a19,19,0,0,1,2.9,6.3c.5,2.5.7,5.8.4,11.5l1.5.1c.2-5.7.1-9.2-.5-11.9a19.09,19.09,0,0,0-3.1-6.8Zm3.3,17.7a78.35,78.35,0,0,1-.9,10,9.1,9.1,0,0,1-.3,1.2v.1l.1-.1.1-.1h0l.3.7.3.7h0a.1.1,0,0,0,.1-.1l.1-.1c.1-.1.1-.2.2-.4a7.54,7.54,0,0,0,.4-1.5,71,71,0,0,0,.9-10.2Zm-.7,11.8.4-.6h-.1c-.1,0-.1-.1-.2-.1a9.22,9.22,0,0,1-.8-.5q-1-.6-2.7-1.5a38.89,38.89,0,0,0-6.4-2.9l-.4,1.4a38.25,38.25,0,0,1,6.1,2.7c1,.5,1.9,1.1,2.6,1.4a5.58,5.58,0,0,1,.8.5.31.31,0,0,0,.2.1h.1C126.6,160.2,126.6,160.2,127,159.5Zm-10.6-4.4a22.17,22.17,0,0,0,1.8,2.2q1.2,1.35,2.7,3.3a27,27,0,0,1,4.8,10.5l1.5-.3a26,26,0,0,0-5.1-11.1,39.29,39.29,0,0,0-2.8-3.4c-.8-.9-1.4-1.6-1.7-2Zm9.3,15.9c1.8,9.1,1.9,13,1.9,22.4h1.5c0-9.4-.1-13.5-2-22.7Zm1.9,22.4a39.54,39.54,0,0,1-39.4,39.7v1.5a41.08,41.08,0,0,0,40.9-41.2ZM162.9,101H145.2v1.5h17.7ZM30,82.6C30,50.2,56,24,88.1,24V22.5c-32.9,0-59.6,26.9-59.6,60.1ZM88.1,23.9c32.1,0,58.1,26.2,58.1,58.6h1.5c0-33.2-26.7-60.1-59.6-60.1ZM16.8,82.6c0-39.7,31.9-71.9,71.2-71.9V9.2c-40.2,0-72.7,32.9-72.7,73.4ZM88.1,10.7c39.3,0,71.2,32.2,71.2,71.9h1.5c0-40.5-32.6-73.4-72.7-73.4ZM98.5,93.5H77.8V95H98.5Zm-5,128.2H81.7a.75.75,0,0,1-.7-.5.63.63,0,0,1,.2-.8l2.3-2.3a.91.91,0,0,1,.7-.3H96a.75.75,0,0,1,.7.5.63.63,0,0,1-.2.8l-2.3,2.3A.91.91,0,0,1,93.5,221.7Zm-11.2-1H93.5l1.9-1.9H84.2ZM93.5,213H81.7a.75.75,0,0,1-.7-.5.63.63,0,0,1,.2-.8l2.3-2.3a.91.91,0,0,1,.7-.3H96a.75.75,0,0,1,.7.5.63.63,0,0,1-.2.8l-2.3,2.3A.91.91,0,0,1,93.5,213Zm-11.2-1H93.5l1.9-1.9H84.2ZM96,217.3H84.2a.91.91,0,0,1-.7-.3l-2.3-2.3a.78.78,0,0,1-.2-.8.75.75,0,0,1,.7-.5H93.5a.91.91,0,0,1,.7.3l2.3,2.3a.78.78,0,0,1,.2.8A.64.64,0,0,1,96,217.3Zm-13.7-2.8,1.9,1.9H95.4l-1.9-1.9Z" transform="translate(-4.2 -4.1)"/></svg>