<svg width="24" height="24" viewBox="0 0 24 24" fill="none" xmlns="http://www.w3.org/2000/svg">
<path d="M12 6C11.4477 6 11 6.44772 11 7C11 7.55228 11.4477 8 12 8V6ZM12.01 8C12.5623 8 13.01 7.55228 13.01 7C13.01 6.44772 12.5623 6 12.01 6V8ZM10 10C9.44772 10 9 10.4477 9 11C9 11.5523 9.44772 12 10 12V10ZM12 11H13C13 10.4477 12.5523 10 12 10V11ZM11 16C11 16.5523 11.4477 17 12 17C12.5523 17 13 16.5523 13 16H11ZM10 15C9.44772 15 9 15.4477 9 16C9 16.5523 9.44772 17 10 17V15ZM14 17C14.5523 17 15 16.5523 15 16C15 15.4477 14.5523 15 14 15V17ZM21 12C21 16.9706 16.9706 21 12 21V23C18.0751 23 23 18.0751 23 12H21ZM12 21C7.02944 21 3 16.9706 3 12H1C1 18.0751 5.92487 23 12 23V21ZM3 12C3 7.02944 7.02944 3 12 3V1C5.92487 1 1 5.92487 1 12H3ZM12 3C16.9706 3 21 7.02944 21 12H23C23 5.92487 18.0751 1 12 1V3ZM12 8H12.01V6H12V8ZM10 12H12V10H10V12ZM11 11V16H13V11H11ZM10 17H14V15H10V17Z" fill="#F6F6F6" fill-opacity="0.48"/>
</svg>
