<svg width="25" height="24" viewBox="0 0 25 24" fill="none" xmlns="http://www.w3.org/2000/svg">
<path d="M21.5014 2.72534L13.7012 8.52795L15.1518 5.10346L21.5014 2.72534Z" fill="#E17726"/>
<path d="M3.47534 2.72534L11.228 8.57551L9.84869 5.10346L3.47534 2.72534Z" fill="#E27625"/>
<path d="M18.6953 16.1617L16.6025 19.3484L21.0734 20.585L22.3338 16.233L18.6953 16.1617Z" fill="#E27625"/>
<path d="M2.6665 16.233L3.92691 20.585L8.37398 19.3484L6.30502 16.1617L2.6665 16.233Z" fill="#E27625"/>
<path d="M8.13628 10.7871L6.89966 12.6658L11.2992 12.8561L11.1565 8.09985L8.13628 10.7871Z" fill="#E27625"/>
<path d="M16.8641 10.7872L13.7963 8.05237L13.7012 12.8562L18.1007 12.6659L16.8641 10.7872Z" fill="#E27625"/>
<path d="M8.37402 19.3484L11.0375 18.0643L8.73074 16.2569L8.37402 19.3484Z" fill="#E27625"/>
<path d="M13.9626 18.0643L16.6024 19.3484L16.2456 16.2569L13.9626 18.0643Z" fill="#E27625"/>
<path d="M16.6024 19.3484L13.9626 18.0642L14.1767 19.7765L14.1529 20.5137L16.6024 19.3484Z" fill="#D5BFB2"/>
<path d="M8.37402 19.3484L10.8473 20.5137L10.8235 19.7765L11.0375 18.0642L8.37402 19.3484Z" fill="#D5BFB2"/>
<path d="M10.895 15.1153L8.68335 14.4732L10.2291 13.7598L10.895 15.1153Z" fill="#233447"/>
<path d="M14.1055 15.1153L14.7476 13.7598L16.3171 14.4732L14.1055 15.1153Z" fill="#233447"/>
<path d="M8.37438 19.3484L8.75488 16.1617L6.30542 16.233L8.37438 19.3484Z" fill="#CC6228"/>
<path d="M16.2458 16.1617L16.6026 19.3484L18.6953 16.233L16.2458 16.1617Z" fill="#CC6228"/>
<path d="M18.1007 12.6658L13.7012 12.8561L14.1055 15.1153L14.7475 13.7598L16.3171 14.4732L18.1007 12.6658Z" fill="#CC6228"/>
<path d="M8.68324 14.4732L10.229 13.7598L10.8949 15.1153L11.2992 12.8561L6.89966 12.6658L8.68324 14.4732Z" fill="#CC6228"/>
<path d="M6.89966 12.6658L8.73081 16.2568L8.68324 14.4732L6.89966 12.6658Z" fill="#E27525"/>
<path d="M16.3172 14.4732L16.2458 16.2568L18.1008 12.6658L16.3172 14.4732Z" fill="#E27525"/>
<path d="M11.2993 12.8561L10.895 15.1154L11.3944 17.8026L11.5133 14.2592L11.2993 12.8561Z" fill="#E27525"/>
<path d="M13.7011 12.8561L13.4871 14.2592L13.5822 17.8026L14.1054 15.1154L13.7011 12.8561Z" fill="#E27525"/>
<path d="M14.1055 15.1154L13.5823 17.8026L13.9628 18.0642L16.2458 16.2569L16.3171 14.4733L14.1055 15.1154Z" fill="#F5841F"/>
<path d="M8.68335 14.4733L8.73091 16.2569L11.0377 18.0642L11.3944 17.8026L10.895 15.1154L8.68335 14.4733Z" fill="#F5841F"/>
<path d="M14.1528 20.5136L14.1766 19.7764L13.9626 19.6099H11.0137L10.8235 19.7764L10.8473 20.5136L8.37402 19.3483L9.23014 20.0618L10.99 21.2746H13.9864L15.7462 20.0618L16.6023 19.3483L14.1528 20.5136Z" fill="#C0AC9D"/>
<path d="M13.9631 18.0643L13.5826 17.8027H11.3947L11.038 18.0643L10.824 19.7765L11.0142 19.61H13.9631L14.1771 19.7765L13.9631 18.0643Z" fill="#161616"/>
<path d="M21.8342 8.90844L22.5001 5.69799L21.5013 2.72534L13.9626 8.33769L16.8639 10.7872L20.9543 11.9762L21.858 10.9298L21.4775 10.6445L22.0958 10.0737L21.6202 9.69322L22.2385 9.2176L21.8342 8.90844Z" fill="#763E1A"/>
<path d="M2.50024 5.69799L3.16612 8.90844L2.73806 9.2176L3.35637 9.69322L2.88074 10.0737L3.52283 10.6445L3.11855 10.9298L4.02224 11.9762L8.13638 10.7872L11.0377 8.33769L3.47527 2.72534L2.50024 5.69799Z" fill="#763E1A"/>
<path d="M20.9545 11.9762L16.8642 10.7872L18.1008 12.6659L16.2458 16.2568L18.6953 16.2331H22.3338L20.9545 11.9762Z" fill="#F5841F"/>
<path d="M8.13617 10.7872L4.02203 11.9762L2.6665 16.2331H6.30502L8.7307 16.2568L6.89955 12.6659L8.13617 10.7872Z" fill="#F5841F"/>
<path d="M13.7012 12.8562L13.9628 8.33775L15.1518 5.10352H9.84863L11.0377 8.33775L11.2993 12.8562L11.3944 14.283V17.8027H13.5823V14.283L13.7012 12.8562Z" fill="#F5841F"/>
</svg>
