<svg width="24" height="21" viewBox="0 0 24 21" fill="none" xmlns="http://www.w3.org/2000/svg">
<path fill-rule="evenodd" clip-rule="evenodd" d="M17.9742 3.14139C19.5536 5.6348 18.6816 8.4844 16.8389 11.8359C16.7567 12.014 16.7567 12.1759 16.7567 12.354C16.8288 12.5103 16.9137 12.5918 16.989 12.6641C16.9995 12.6742 17.0098 12.6841 17.0199 12.694C17.2832 12.8721 17.6287 12.8721 17.8919 12.5159C18.8461 11.2207 19.6359 9.84444 20.1623 8.54917C20.1892 8.52276 20.2073 8.48601 20.2257 8.44847C20.2639 8.37096 20.3036 8.29011 20.4256 8.29011C20.5078 8.20916 20.6888 8.20916 20.7711 8.20916C21.1166 8.20916 21.2976 8.38726 21.4785 8.64631C21.6595 8.98632 21.7418 9.58539 21.7418 10.2816C21.7418 10.8807 21.6595 11.5769 21.4785 12.354C20.8698 15.0255 19.0271 17.9561 16.9377 19.7533C16.7567 19.8343 16.7567 20.0124 16.7567 20.1905C16.7567 20.3686 16.8389 20.4495 16.9377 20.5305C17.0199 20.6114 17.2009 20.7086 17.2832 20.7086C17.4641 20.7086 17.6287 20.7086 17.7274 20.6276C20.5243 18.4742 22.7125 15.3817 23.5844 12.4512C24.3742 9.43967 24.0287 6.25005 22.6302 4.1938C21.676 2.81757 20.7053 1.78135 19.6523 1.10134C17.6451 -0.19394 15.276 -0.355849 12.2158 0.66418C10.2086 1.26324 7.67494 2.99567 5.38805 5.31098C3.38085 7.28627 1.80141 9.61777 0.847173 11.9331C-0.205783 14.3455 -0.123521 16.1751 0.271338 17.5028C1.02815 20.0771 3.7428 21 5.48676 21C8.46465 20.9352 11.5413 19.138 13.4826 17.438C13.5649 17.357 13.6636 17.1789 13.6636 17.0008C13.6636 16.8641 13.6151 16.7846 13.5479 16.6745C13.5276 16.6412 13.5056 16.605 13.4826 16.5637C13.3017 16.3046 12.9562 16.2237 12.6107 16.4827C10.4225 18.118 7.87236 19.0085 6.02969 19.0409C5.70696 19.0494 5.33245 19.018 4.94562 18.9365L6.77005 16.4342H6.80296C8.53046 16.4342 10.5541 15.4141 11.64 13.9084C13.1371 11.8521 11.5906 10.4597 10.7515 9.71491L10.5541 9.53681C9.53406 8.61393 9.51761 8.4844 9.94537 7.90153C10.7351 6.81674 12.3803 6.03957 13.4991 6.21767H13.532C13.7459 6.25005 14.0091 6.33101 14.0914 6.54149C14.1901 6.75197 14.1407 7.15675 13.7459 7.69105C13.4333 8.1282 13.532 8.74346 13.9762 9.05109C14.4204 9.35871 15.0456 9.26157 15.3582 8.82441C16.0986 7.82057 16.3125 6.71959 15.9341 5.8129C15.7695 5.42432 15.5227 5.11669 15.1937 4.85763L17.0299 2.33045C17.4204 2.53062 17.7409 2.80422 17.9742 3.14139ZM2.60758 12.4188C2.06465 14.0703 1.93303 15.8027 2.26208 16.8227C2.42995 17.3484 2.73624 17.7641 3.11577 18.0867L4.79576 15.7865C4.46671 15.5275 4.21992 15.2198 4.07185 14.8474C3.69344 13.9408 3.90733 12.8398 4.64769 11.8359C4.96028 11.3988 5.58548 11.3016 6.02969 11.6093C6.47391 11.9169 6.57262 12.5321 6.26003 12.9693C5.86517 13.5036 5.81581 13.9084 5.91452 14.1189C5.99679 14.3293 6.26003 14.4103 6.47391 14.4427H6.50681C7.62558 14.6208 9.27082 13.8436 10.0605 12.7588C10.4718 12.1921 10.4718 12.0464 9.43535 11.1235L9.23792 10.9454C8.34949 10.1521 6.85231 8.80822 8.34948 6.75197C9.43535 5.24621 11.459 4.22619 13.1865 4.22619H13.2194L14.8621 1.96299C14.1573 2.02953 13.3446 2.25753 12.4626 2.54233C10.4554 3.31949 8.36594 4.69572 6.52326 6.50911C4.68059 8.24154 3.26568 10.3949 2.60758 12.4188Z" fill="url(#paint0_linear_1835_3972)"/>
<defs>
<linearGradient id="paint0_linear_1835_3972" x1="24" y1="10.5" x2="-1.00263e-07" y2="10.5" gradientUnits="userSpaceOnUse">
<stop stop-color="#96F537"/>
<stop offset="1" stop-color="#33D373"/>
</linearGradient>
</defs>
</svg>
