<svg width="66" height="66" xmlns="http://www.w3.org/2000/svg" version="1.1">
 <title>oneusd</title>
 <defs>
  <linearGradient id="linearGradient-1" y2="50.0001454%" x2="99.9997805%" y1="50.0001454%" x1="-0.000302858256%">
   <stop offset="0%" stop-color="#33D373"/>
   <stop offset="100%" stop-color="#96F537"/>
  </linearGradient>
 </defs>
 <g>
  <title>Layer 1</title>
  <ellipse stroke="#000" ry="32.45478" rx="32.45478" id="svg_2" cy="33" cx="33" fill="#000000"/>
  <g stroke="null" fill-rule="evenodd" fill="none" id="Page-1">
   <g stroke="null" fill="url(#linearGradient-1)" id="oneusd">
    <path stroke="null" id="Shape" d="m46.66619,12.99425c3.61319,5.81376 1.61889,12.45847 -2.59675,20.27396c-0.18845,0.41548 -0.18845,0.79238 -0.18845,1.20786c0.16545,0.36429 0.35909,0.55422 0.53196,0.72264l0.07048,0.07048c0.60245,0.41548 1.3926,0.41548 1.99505,-0.41548c2.18276,-3.02039 3.98935,-6.22924 5.1935,-9.24963c0.06093,-0.06996 0.11005,-0.14941 0.14542,-0.23519c0.08681,-0.18029 0.17806,-0.36874 0.45703,-0.36874c0.18845,-0.18919 0.6017,-0.18919 0.79015,-0.18919c0.79015,0 1.20489,0.41548 1.61815,1.01941c0.41474,0.79312 0.60245,2.19017 0.60245,3.81352c0,1.39631 -0.18845,3.01965 -0.60245,4.83218c-1.39186,6.22924 -5.6075,13.0624 -10.38701,17.25356c-0.41474,0.18845 -0.41474,0.60393 -0.41474,1.01941c0,0.41548 0.18845,0.60393 0.414,0.79238c0.18845,0.18919 0.60245,0.41548 0.7909,0.41548c0.414,0 0.79015,0 1.01644,-0.18845c6.39766,-5.02138 11.40345,-12.23219 13.3985,-19.0661c1.8066,-7.02236 1.0157,-14.45946 -2.18276,-19.25455c-2.1835,-3.20884 -4.40409,-5.62456 -6.81239,-7.21081c-4.59254,-3.01965 -10.01159,-3.39804 -17.01244,-1.01941c-4.59106,1.39705 -10.38701,5.43686 -15.61909,10.83588c-4.5918,4.6059 -8.20499,10.04201 -10.38701,15.44103c-2.40904,5.62531 -2.22134,9.8914 -1.31767,12.98747c1.73092,6.00221 7.94087,8.15454 11.93022,8.15454c6.81239,-0.15135 13.85108,-4.34177 18.29152,-8.3059c0.18845,-0.18845 0.414,-0.60393 0.414,-1.01941c0,-0.31903 -0.11055,-0.50451 -0.26413,-0.76048c-0.05156,-0.08523 -0.10128,-0.17156 -0.14913,-0.25893c-0.41474,-0.60393 -1.20489,-0.79238 -1.99579,-0.18845c-5.00505,3.81352 -10.83884,5.88943 -15.05374,5.96511c-0.73896,0.01929 -1.59515,-0.05342 -2.48027,-0.24335l4.17335,-5.83527l0.07568,0c3.95151,0 8.58115,-2.37862 11.06513,-5.88943c3.42474,-4.79509 -0.11277,-8.04177 -2.03289,-9.77863l-0.45109,-0.41548c-2.33337,-2.15159 -2.37121,-2.45356 -1.3926,-3.81277c1.8066,-2.52924 5.5704,-4.34177 8.12932,-3.92629l0.07568,0c0.48967,0.07568 1.09064,0.26487 1.27909,0.75528c0.22629,0.49116 0.11352,1.43489 -0.79015,2.68059c-0.71522,1.01941 -0.48967,2.45356 0.52677,3.17101c1.01644,0.71745 2.44688,0.49116 3.16136,-0.52825c1.69382,-2.34079 2.1835,-4.90786 1.31767,-7.02236c-0.37616,-0.9059 -0.94077,-1.62334 -1.69382,-2.22727l4.2008,-5.89314c0.89328,0.46742 1.62631,1.10547 2.15976,1.89118l0,0zm-35.1526,21.63317c-1.24199,3.85061 -1.54321,7.89042 -0.79015,10.2683c0.38358,1.22641 1.0847,2.19611 1.95276,2.94768l3.84319,-5.36415c-0.75306,-0.60319 -1.31767,-1.32063 -1.65599,-2.18869c-0.86583,-2.1145 -0.37616,-4.68157 1.31692,-7.02236c0.71522,-1.01941 2.14566,-1.24644 3.1621,-0.529c1.01644,0.71745 1.24199,2.15159 0.52677,3.17175c-0.90367,1.2457 -1.01644,2.18943 -0.7909,2.68059c0.18845,0.49042 0.7909,0.67961 1.27983,0.75454l0.07568,0c2.55966,0.41548 6.32272,-1.39705 8.12932,-3.92629c0.94077,-1.32063 0.94077,-1.66118 -1.43044,-3.81352l-0.45109,-0.41548c-2.03289,-1.84889 -5.45763,-4.9828 -2.03289,-9.77714c2.48398,-3.51155 7.11362,-5.89018 11.06513,-5.89018l0.07568,0l3.75787,-5.27734c-1.61221,0.15581 -3.47223,0.68703 -5.48953,1.35105c-4.5918,1.81253 -9.37131,5.02138 -13.58695,9.24963c-4.2149,4.0398 -7.45119,9.06118 -8.95731,13.78059z"/>
   </g>
  </g>
 </g>
</svg>