<svg width="30" height="26" xmlns="http://www.w3.org/2000/svg" fill="none">
 <defs>
  <linearGradient y2="0.5" x2="0" y1="0.5" x1="1" id="paint0_linear_1835_3972">
   <stop stop-color="#96F537"/>
   <stop stop-color="#33D373" offset="1"/>
  </linearGradient>
 </defs>
 <g>
  <title>Layer 1</title>
  <path id="svg_1" fill="url(#paint0_linear_1835_3972)" d="m20.97419,5.64139c1.5794,2.49341 0.7074,5.34301 -1.1353,8.69451c-0.0822,0.1781 -0.0822,0.34 -0.0822,0.5181c0.0721,0.1563 0.157,0.2378 0.2323,0.3101c0.0105,0.0101 0.0208,0.02 0.0309,0.0299c0.2633,0.1781 0.6088,0.1781 0.872,-0.1781c0.9542,-1.2952 1.744,-2.67146 2.2704,-3.96673c0.0269,-0.02641 0.045,-0.06316 0.0634,-0.1007c0.0382,-0.07751 0.0779,-0.15836 0.1999,-0.15836c0.0822,-0.08095 0.2632,-0.08095 0.3455,-0.08095c0.3455,0 0.5265,0.1781 0.7074,0.43715c0.181,0.34001 0.2633,0.93908 0.2633,1.63529c0,0.5991 -0.0823,1.2953 -0.2633,2.0724c-0.6087,2.6715 -2.4514,5.6021 -4.5408,7.3993c-0.181,0.081 -0.181,0.2591 -0.181,0.4372c0,0.1781 0.0822,0.259 0.181,0.34c0.0822,0.0809 0.2632,0.1781 0.3455,0.1781c0.1809,0 0.3455,0 0.4442,-0.081c2.7969,-2.1534 4.9851,-5.2459 5.857,-8.1764c0.7898,-3.01153 0.4443,-6.20115 -0.9542,-8.2574c-0.9542,-1.37623 -1.9249,-2.41245 -2.9779,-3.09246c-2.0072,-1.29528 -4.3763,-1.45719 -7.4365,-0.43716c-2.0072,0.59906 -4.54086,2.33149 -6.82775,4.6468c-2.0072,1.97529 -3.58664,4.30679 -4.54088,6.62212c-1.05295,2.4124 -0.97069,4.242 -0.57583,5.5697c0.75681,2.5743 3.47146,3.4972 5.21542,3.4972c2.97789,-0.0648 6.05454,-1.862 7.99584,-3.562c0.0823,-0.081 0.181,-0.2591 0.181,-0.4372c0,-0.1367 -0.0485,-0.2162 -0.1157,-0.3263c-0.0203,-0.0333 -0.0423,-0.0695 -0.0653,-0.1108c-0.1809,-0.2591 -0.5264,-0.34 -0.8719,-0.081c-2.1882,1.6353 -4.73834,2.5258 -6.58101,2.5582c-0.32273,0.0085 -0.69724,-0.0229 -1.08407,-0.1044l1.82443,-2.5023l0.03291,0c1.7275,0 3.75114,-1.0201 4.83704,-2.5258c1.4971,-2.0563 -0.0494,-3.4487 -0.8885,-4.19349l-0.1974,-0.1781c-1.02004,-0.92288 -1.03649,-1.05241 -0.60873,-1.63528c0.78973,-1.08479 2.43493,-1.86196 3.55373,-1.68386l0.0329,0c0.2139,0.03238 0.4771,0.11334 0.5594,0.32382c0.0987,0.21048 0.0493,0.61526 -0.3455,1.14956c-0.3126,0.43715 -0.2139,1.05241 0.2303,1.36004c0.4442,0.30762 1.0694,0.21048 1.382,-0.22668c0.7404,-1.00384 0.9543,-2.10482 0.5759,-3.01151c-0.1646,-0.38858 -0.4114,-0.69621 -0.7404,-0.95527l1.8362,-2.52718c0.3905,0.20017 0.711,0.47377 0.9443,0.81094zm-15.36662,9.27741c-0.54293,1.6515 -0.67455,3.3839 -0.3455,4.4039c0.16787,0.5257 0.47416,0.9414 0.85369,1.264l1.67999,-2.3002c-0.32905,-0.259 -0.57584,-0.5667 -0.72391,-0.9391c-0.37841,-0.9066 -0.16452,-2.0076 0.57584,-3.0115c0.31259,-0.4371 0.93779,-0.5343 1.382,-0.2266c0.44422,0.3076 0.54293,0.9228 0.23034,1.36c-0.39486,0.5343 -0.44422,0.9391 -0.34551,1.1496c0.08227,0.2104 0.34551,0.2914 0.55939,0.3238l0.0329,0c1.11877,0.1781 2.76401,-0.5991 3.55369,-1.6839c0.4113,-0.5667 0.4113,-0.7124 -0.62515,-1.6353l-0.19743,-0.1781c-0.88843,-0.7933 -2.38561,-2.13718 -0.88844,-4.19343c1.08587,-1.50576 3.10952,-2.52578 4.83702,-2.52578l0.0329,0l1.6427,-2.2632c-0.7048,0.06654 -1.5175,0.29454 -2.3995,0.57934c-2.0072,0.77716 -4.09666,2.15339 -5.93934,3.96678c-1.84267,1.73243 -3.25758,3.88579 -3.91568,5.90969z" clip-rule="evenodd" fill-rule="evenodd"/>
 </g>
</svg>