<svg width="24" height="20" viewBox="0 0 24 20" fill="none" xmlns="http://www.w3.org/2000/svg">
<path d="M9.04687 0.540452C8.63644 -0.180151 7.57005 -0.180151 7.15993 0.540452L0.104153 13.0331C-0.224129 13.6738 0.268142 14.3944 1.00655 14.3944H5.76496V19.119C5.76496 19.5996 6.17539 20 6.66766 20H9.45699C9.94926 20 10.3594 19.5996 10.3594 19.119V14.3944H9.04687C8.47245 14.3944 8.06232 13.994 7.98018 13.5134C7.98018 13.3533 7.98018 13.1932 8.06232 13.0313L12.0005 6.06438L9.04687 0.540452Z" fill="#F6F6F6" fill-opacity="0.48"/>
<path d="M15.0154 0.540452C15.423 -0.180151 16.4822 -0.180151 16.8895 0.540452L23.8975 13.0331C24.2236 13.6738 23.7346 14.3944 23.0012 14.3944H18.3564V19.119C18.3564 19.5996 17.949 20 17.4592 20H14.5265C14.0375 20 13.6302 19.5996 13.6302 19.119V14.3944H14.9341C15.5043 14.3944 15.9117 13.994 15.9933 13.5134C15.9933 13.3533 15.9933 13.1932 15.9117 13.0313L12.0005 6.06616L15.0154 0.540452Z" fill="#F6F6F6" fill-opacity="0.48"/>
</svg>
