<svg width="20" height="16" viewBox="0 0 20 16" fill="none" xmlns="http://www.w3.org/2000/svg">
<path d="M2.37224 3.264C2.3845 3.14227 2.36809 3.01935 2.32433 2.9051C2.28057 2.79084 2.21068 2.68841 2.12024 2.606L0.252244 0.339V0H6.05024L10.5322 9.905L14.4722 0H20.0002V0.339L18.4032 1.88C18.3356 1.93225 18.2834 2.00189 18.2522 2.0815C18.221 2.16111 18.212 2.24769 18.2262 2.332V13.666C18.212 13.7503 18.221 13.8369 18.2522 13.9165C18.2834 13.9961 18.3356 14.0658 18.4032 14.118L19.9632 15.66V16H12.1192V15.661L13.7352 14.081C13.8942 13.921 13.8942 13.874 13.8942 13.63V4.468L9.40224 15.962H8.79624L3.56624 4.468V12.172C3.52324 12.495 3.63024 12.822 3.85624 13.056L5.95724 15.624V15.962H0.000244141V15.624L2.10024 13.056C2.21136 12.9401 2.29382 12.7997 2.34105 12.6462C2.38827 12.4928 2.39896 12.3304 2.37224 12.172V3.264Z" fill="#F6F6F6" fill-opacity="0.48"/>
</svg>
