<svg width="24" height="18" viewBox="0 0 24 18" fill="none" xmlns="http://www.w3.org/2000/svg">
<path d="M20.3174 1.492C18.7874 0.802004 17.1474 0.292004 15.4324 0.00200412C15.4171 -0.000927963 15.4013 0.000961578 15.3871 0.00741145C15.373 0.0138613 15.3612 0.0245524 15.3534 0.0380041C15.1434 0.407004 14.9094 0.888004 14.7454 1.268C12.9265 0.996241 11.0773 0.996241 9.25837 1.268C9.07571 0.846865 8.86972 0.436228 8.64137 0.0380041C8.63363 0.0243868 8.62192 0.0134539 8.60781 0.00666425C8.59369 -0.00012538 8.57784 -0.00244886 8.56237 4.02814e-06C6.84837 0.290004 5.20837 0.800004 3.67737 1.491C3.6642 1.49653 3.65304 1.50595 3.64537 1.518C0.533374 6.093 -0.319626 10.555 0.0993738 14.961C0.10054 14.9718 0.103889 14.9822 0.109219 14.9917C0.114548 15.0011 0.121746 15.0094 0.130374 15.016C1.94677 16.3384 3.97271 17.3458 6.12337 17.996C6.13837 18.0006 6.1544 18.0006 6.16939 17.996C6.18437 17.9913 6.19761 17.9823 6.20737 17.97C6.66937 17.35 7.08137 16.695 7.43337 16.007C7.45437 15.967 7.43437 15.919 7.39237 15.903C6.74638 15.6597 6.12046 15.3662 5.52037 15.025C5.50959 15.0188 5.5005 15.0101 5.49393 14.9996C5.48736 14.989 5.4835 14.977 5.48271 14.9647C5.48191 14.9523 5.48421 14.9399 5.48939 14.9286C5.49457 14.9173 5.50246 14.9075 5.51237 14.9C5.63837 14.807 5.76437 14.71 5.88437 14.613C5.89518 14.6043 5.90819 14.5987 5.92196 14.597C5.93573 14.5952 5.94972 14.5973 5.96237 14.603C9.88937 16.367 14.1424 16.367 18.0234 14.603C18.0361 14.5969 18.0502 14.5946 18.0642 14.5962C18.0781 14.5978 18.0914 14.6032 18.1024 14.612C18.2224 14.71 18.3474 14.807 18.4744 14.9C18.4844 14.9073 18.4924 14.917 18.4978 14.9282C18.5031 14.9394 18.5056 14.9517 18.505 14.9641C18.5044 14.9765 18.5007 14.9885 18.4943 14.9992C18.488 15.0098 18.479 15.0187 18.4684 15.025C17.8704 15.369 17.2484 15.66 16.5954 15.902C16.5853 15.9056 16.5762 15.9114 16.5686 15.9188C16.5609 15.9263 16.555 15.9353 16.5511 15.9452C16.5472 15.9552 16.5455 15.9658 16.5461 15.9765C16.5466 15.9871 16.5495 15.9975 16.5544 16.007C16.9144 16.694 17.3264 17.348 17.7794 17.969C17.7888 17.9817 17.8019 17.9913 17.8169 17.9963C17.832 18.0013 17.8482 18.0015 17.8634 17.997C20.0177 17.3486 22.047 16.3408 23.8654 15.016C23.8742 15.0098 23.8817 15.0018 23.8872 14.9925C23.8927 14.9831 23.8962 14.9728 23.8974 14.962C24.3974 9.868 23.0594 5.442 20.3484 1.52C20.3417 1.50726 20.3307 1.49732 20.3174 1.492ZM8.02037 12.278C6.83837 12.278 5.86337 11.209 5.86337 9.898C5.86337 8.586 6.81937 7.518 8.02037 7.518C9.23037 7.518 10.1964 8.595 10.1774 9.898C10.1774 11.21 9.22137 12.278 8.02037 12.278ZM15.9954 12.278C14.8124 12.278 13.8384 11.209 13.8384 9.898C13.8384 8.586 14.7934 7.518 15.9954 7.518C17.2054 7.518 18.1714 8.595 18.1524 9.898C18.1524 11.21 17.2064 12.278 15.9954 12.278Z" fill="#F6F6F6" fill-opacity="0.48"/>
</svg>
