<svg width="22" height="19" viewBox="0 0 22 19" fill="none" xmlns="http://www.w3.org/2000/svg">
<path d="M1.51298 8.17875C7.41799 5.49772 11.3564 3.72971 13.3264 2.8765C18.9529 0.438233 20.121 0.0142637 20.8824 0.000190016C21.0512 -0.0033284 21.4259 0.0406516 21.6673 0.246479C21.8295 0.392372 21.9331 0.59644 21.9577 0.818222C21.9987 1.09282 22.01 1.37134 21.9914 1.64857C21.6859 4.98755 20.3658 13.0869 19.6956 16.827C19.412 18.4085 18.8516 18.9381 18.3114 18.9908C17.3795 19.0788 16.6249 18.5194 15.786 17.8949C15.5648 17.7313 15.3386 17.5641 15.1023 17.4023C14.1704 16.7654 13.4513 16.2553 12.7305 15.7433L12.6728 15.7025C12.0318 15.248 11.3846 14.7892 10.5815 14.2375C8.85964 13.0553 9.57877 12.3305 10.541 11.3664C10.6963 11.2099 10.8584 11.0463 11.017 10.8756C11.0879 10.7982 11.434 10.4622 11.9236 9.98898C13.4935 8.46902 16.522 5.5329 16.5996 5.19337C16.6114 5.13708 16.6233 4.92949 16.5051 4.82042C16.3869 4.70959 16.2114 4.74829 16.0848 4.7782C15.9058 4.82042 13.058 6.78194 7.54122 10.6645C6.73262 11.2415 5.99998 11.523 5.3433 11.5089C4.62079 11.4931 3.22979 11.0832 2.19497 10.7331C2.04304 10.6803 1.89449 10.6328 1.751 10.5853C0.700995 10.2423 -0.0721596 9.98898 0.00549346 9.34511C0.0510725 8.96512 0.55413 8.57633 1.51298 8.17875Z" fill="#F6F6F6" fill-opacity="0.48"/>
</svg>
