<svg width="79" height="16" viewBox="0 0 79 16" fill="none" xmlns="http://www.w3.org/2000/svg">
<path d="M6.15501 0.00381542C5.10007 0.00436429 4.06898 0.317364 3.19209 0.903242C2.3152 1.48912 1.6319 2.32157 1.22857 3.29534C0.825243 4.26911 0.719999 5.34048 0.926145 6.374C1.13229 7.40752 1.64057 8.35677 2.38672 9.10175C3.13287 9.84673 4.08339 10.354 5.11811 10.5594C6.15282 10.7648 7.22526 10.6591 8.19985 10.2557C9.17444 9.85225 10.0074 9.16923 10.5934 8.29297C11.1795 7.4167 11.4923 6.38652 11.4923 5.33269C11.4923 4.63266 11.3542 3.93949 11.0859 3.29278C10.8177 2.64607 10.4245 2.05849 9.92886 1.56362C9.43321 1.06876 8.84482 0.676293 8.19729 0.408655C7.54976 0.141017 6.85578 0.00345082 6.15501 0.00381542ZM6.15501 9.7057C4.82917 9.7057 3.75449 7.749 3.75449 5.33547C3.75449 2.92193 4.82917 0.965234 6.15501 0.965234C7.48086 0.965234 8.55553 2.92193 8.55553 5.33547C8.55553 7.749 7.48086 9.7057 6.15501 9.7057Z" fill="#F6F6F6"/>
<path d="M48.1591 5.41774V10.337H51.0958V0.335876L48.1591 5.41774Z" fill="#F6F6F6"/>
<path d="M36.5083 6.17156H37.7702C37.9849 4.81814 37.6694 3.43412 36.8893 2.30698C36.1092 1.17984 34.9244 0.396232 33.581 0.118917C32.2376 -0.158398 30.839 0.0919004 29.6755 0.81782C28.512 1.54374 27.6732 2.68948 27.3333 4.01705C26.9934 5.34462 27.1785 6.75198 27.8502 7.94678C28.5218 9.14158 29.6285 10.032 30.9401 10.4331C32.2518 10.8341 33.6678 10.715 34.8938 10.1005C36.1199 9.48591 37.0618 8.42317 37.524 7.13298H34.629C34.1811 8.06942 33.3954 8.69223 32.4985 8.69223C31.321 8.69223 30.3347 7.61979 30.0535 6.17156H36.5066H36.5083ZM30.0563 4.50018C30.3341 3.05195 31.3221 1.98007 32.5013 1.98007C33.6804 1.98007 34.6645 3.05195 34.9462 4.50018H30.0563Z" fill="#F6F6F6"/>
<path d="M77.4443 6.17155H73.3528L72.7972 7.13297H74.3586C73.9819 8.64948 73.1461 9.70638 72.1731 9.70638C70.8473 9.70638 69.7721 7.74968 69.7721 5.33614C69.7721 2.9226 70.8473 0.965908 72.1731 0.965908C72.9861 0.965908 73.7029 1.70307 74.1375 2.82879H76.8836C76.4208 1.9598 75.7264 1.23568 74.8771 0.73657C74.0278 0.237464 73.0569 -0.0171551 72.0717 0.000897415C71.0865 0.0189499 70.1256 0.30897 69.2952 0.838854C68.4648 1.36874 67.7974 2.11782 67.3669 3.00318C66.9363 3.88854 66.7594 4.87565 66.8557 5.85524C66.952 6.83483 67.3178 7.76869 67.9126 8.55345C68.5073 9.33821 69.3079 9.94327 70.2256 10.3016C71.1433 10.66 72.1424 10.7577 73.1122 10.584L72.1731 14.3492V16L76.793 8.00669H76.7886C77.1192 7.4409 77.3416 6.8186 77.4443 6.17155Z" fill="#F6F6F6"/>
<path d="M47.8196 0.339208C45.4302 0.339208 43.9938 1.27398 43.2942 2.48519V0.338654H41.8311L40.358 2.88708V10.3331H43.2942V5.33725C43.2942 4.16767 44.5383 3.00587 46.2809 3.00587C46.394 3.00601 46.5069 3.01417 46.6188 3.03029L48.1591 0.365853C48.0465 0.350508 47.9332 0.341611 47.8196 0.339208Z" fill="#F6F6F6"/>
<path d="M61.3764 10.3858H64.3131L64.3098 3.72471C64.3098 1.94453 62.8612 0.394164 61.0802 0.394164C59.4132 0.394164 57.6223 1.64367 56.5542 2.75996V0.391388H55.0912L53.6169 2.93981V10.3858H56.5526V5.38999C56.5526 4.22041 57.7973 3.05583 59.5393 3.05583C61.0463 3.05583 61.3731 4.22152 61.3731 5.38999V10.3858H61.3764Z" fill="#F6F6F6"/>
<path d="M21.7017 10.3331H24.6384V3.67197C24.6384 1.8918 23.1898 0.341429 21.4083 0.341429C19.7413 0.341429 17.9503 1.59149 16.8823 2.70723V0.338654H15.4192L13.9417 2.88708V10.3331H16.8773V5.33725C16.8773 4.16767 18.122 3.00587 19.8641 3.00587C21.3711 3.00587 21.6978 4.17156 21.6978 5.33725V10.3331H21.7017Z" fill="#F6F6F6"/>
</svg>
