<svg width="20" height="18" viewBox="0 0 20 18" fill="none" xmlns="http://www.w3.org/2000/svg">
<path d="M3 9.29433V1H7L9.5 7.19355H13.25M17 10.9827V7.19355H13.25M13.25 7.19355V1.51613H15M19 13.9032C19 15.6135 17.6569 17 16 17C14.3431 17 13 15.6135 13 13.9032C13 12.1929 14.3431 10.8065 16 10.8065C17.6569 10.8065 19 12.1929 19 13.9032ZM9 12.871C9 15.1514 7.20914 17 5 17C2.79086 17 1 15.1514 1 12.871C1 10.5906 2.79086 8.74194 5 8.74194C7.20914 8.74194 9 10.5906 9 12.871Z" stroke="#F6F6F6" stroke-opacity="0.48" stroke-width="2" stroke-linecap="round" stroke-linejoin="round"/>
</svg>
