<svg width="20" height="12" viewBox="0 0 20 12" fill="none" xmlns="http://www.w3.org/2000/svg">
<path d="M4.0968 2.34506C7.35738 -0.781688 12.6426 -0.781688 15.9074 2.34506L16.2997 2.72094C16.4642 2.87789 16.4642 3.12985 16.2997 3.28681L14.9583 4.57551C14.8782 4.65399 14.7432 4.65399 14.6631 4.57551L14.1232 4.0592C11.8496 1.87832 8.15881 1.87832 5.88527 4.0592L5.30739 4.61268C5.22725 4.69116 5.09227 4.69116 5.01213 4.61268L3.66656 3.32398C3.50206 3.16703 3.50206 2.91507 3.66656 2.75811L4.0968 2.34506ZM18.6829 5.00508L19.8766 6.14921C20.0411 6.30617 20.0411 6.55813 19.8766 6.71509L14.4901 11.8823C14.3256 12.0392 14.0641 12.0392 13.8996 11.8823L10.0738 8.21444C10.0316 8.17727 9.96836 8.17727 9.92618 8.21444L6.10461 11.8823C5.9401 12.0392 5.67858 12.0392 5.51408 11.8823L0.123379 6.71922C-0.0411262 6.56226 -0.0411262 6.3103 0.123379 6.15334L1.31709 5.00921C1.4816 4.85225 1.74312 4.85225 1.90762 5.00921L5.73342 8.67705C5.7756 8.71422 5.83887 8.71422 5.88105 8.67705L9.70263 5.00921C9.86713 4.85225 10.1287 4.85225 10.2932 5.00921L14.1189 8.67705C14.1611 8.71422 14.2244 8.71422 14.2666 8.67705L18.0924 5.00921C18.2527 4.84812 18.5184 4.84812 18.6829 5.00508Z" fill="#3A99FB"/>
</svg>
