<svg width="24" height="24" viewBox="0 0 24 24" fill="none" xmlns="http://www.w3.org/2000/svg">
<path d="M16.9998 13C16.4475 13 15.9998 13.4477 15.9998 14C15.9998 14.5523 16.4475 15 16.9998 15V13ZM17.3518 14L17.3521 13H17.3518V14ZM20.3278 16.628L19.3355 16.752L19.3356 16.7522L20.3278 16.628ZM20.7188 19.752L21.7111 19.628L21.7111 19.6278L20.7188 19.752ZM18.7338 22L18.734 21H18.7338V22ZM5.26582 22V21H5.2656L5.26582 22ZM3.28082 19.752L4.2731 19.876L4.27311 19.8759L3.28082 19.752ZM3.67082 16.628L2.67853 16.504L2.67852 16.5041L3.67082 16.628ZM6.64882 14L6.64843 15H6.64882V14ZM6.99982 15C7.5521 15 7.99982 14.5523 7.99982 14C7.99982 13.4477 7.5521 13 6.99982 13V15ZM15.9998 7C15.9998 9.20914 14.209 11 11.9998 11V13C15.3135 13 17.9998 10.3137 17.9998 7H15.9998ZM11.9998 11C9.79068 11 7.99982 9.20914 7.99982 7H5.99982C5.99982 10.3137 8.68611 13 11.9998 13V11ZM7.99982 7C7.99982 4.79086 9.79068 3 11.9998 3V1C8.68611 1 5.99982 3.68629 5.99982 7H7.99982ZM11.9998 3C14.209 3 15.9998 4.79086 15.9998 7H17.9998C17.9998 3.68629 15.3135 1 11.9998 1V3ZM16.9998 15H17.3518V13H16.9998V15ZM17.3515 15C17.8389 15.0001 18.3095 15.1782 18.6748 15.5009L19.9987 14.0017C19.268 13.3565 18.3269 13.0003 17.3521 13L17.3515 15ZM18.6748 15.5009C19.0401 15.8235 19.2751 16.2684 19.3355 16.752L21.3201 16.504C21.1992 15.5368 20.7293 14.6469 19.9987 14.0017L18.6748 15.5009ZM19.3356 16.7522L19.7266 19.8762L21.7111 19.6278L21.3201 16.5038L19.3356 16.7522ZM19.7265 19.876C19.7441 20.0167 19.7316 20.1596 19.6897 20.2951L21.6007 20.8852C21.7262 20.4787 21.7639 20.0501 21.7111 19.628L19.7265 19.876ZM19.6897 20.2951C19.6479 20.4306 19.5777 20.5556 19.4838 20.6619L20.983 21.9857C21.2646 21.6668 21.4752 21.2916 21.6007 20.8852L19.6897 20.2951ZM19.4838 20.6619C19.39 20.7682 19.2746 20.8533 19.1453 20.9116L19.9674 22.7348C20.3553 22.56 20.7014 22.3046 20.983 21.9857L19.4838 20.6619ZM19.1453 20.9116C19.016 20.9699 18.8758 21 18.734 21L18.7336 23C19.159 23.0001 19.5796 22.9097 19.9674 22.7348L19.1453 20.9116ZM18.7338 21H5.26582V23H18.7338V21ZM5.2656 21C5.12379 21 4.9836 20.9699 4.85432 20.9116L4.0322 22.7348C4.42003 22.9097 4.84061 23.0001 5.26603 23L5.2656 21ZM4.85432 20.9116C4.72505 20.8533 4.60965 20.7682 4.51579 20.6619L3.0166 21.9857C3.29819 22.3046 3.64438 22.5599 4.0322 22.7348L4.85432 20.9116ZM4.51579 20.6619C4.42192 20.5556 4.35174 20.4306 4.3099 20.2951L2.39894 20.8852C2.52446 21.2917 2.73501 21.6668 3.0166 21.9857L4.51579 20.6619ZM4.3099 20.2951C4.26806 20.1596 4.25551 20.0167 4.2731 19.876L2.28853 19.628C2.23578 20.0501 2.27342 20.4787 2.39894 20.8852L4.3099 20.2951ZM4.27311 19.8759L4.66311 16.7519L2.67852 16.5041L2.28852 19.6281L4.27311 19.8759ZM4.6631 16.752C4.72356 16.2681 4.95871 15.8231 5.32432 15.5004L4.00098 14.0008C3.26976 14.6461 2.79946 15.5363 2.67853 16.504L4.6631 16.752ZM5.32432 15.5004C5.68993 15.1778 6.16082 14.9998 6.64843 15L6.6492 13C5.67397 12.9996 4.7322 13.3555 4.00098 14.0008L5.32432 15.5004ZM6.64882 15H6.99982V13H6.64882V15Z" fill="url(#paint0_linear_713_961)"/>
<defs>
<linearGradient id="paint0_linear_713_961" x1="11.9998" y1="2" x2="11.9998" y2="22" gradientUnits="userSpaceOnUse">
<stop stop-color="#FF5D00"/>
<stop offset="1" stop-color="#EB0000"/>
</linearGradient>
</defs>
</svg>
