<svg width="24" height="24" viewBox="0 0 24 24" fill="none" xmlns="http://www.w3.org/2000/svg">
<path d="M12.9999 9.00001C12.9999 8.44772 12.5522 8.00001 11.9999 8.00001C11.4476 8.00001 10.9999 8.44772 10.9999 9.00001H12.9999ZM10.9999 14C10.9999 14.5523 11.4476 15 11.9999 15C12.5522 15 12.9999 14.5523 12.9999 14H10.9999ZM12.9999 17.5C12.9999 16.9477 12.5522 16.5 11.9999 16.5C11.4476 16.5 10.9999 16.9477 10.9999 17.5H12.9999ZM10.9999 18C10.9999 18.5523 11.4476 19 11.9999 19C12.5522 19 12.9999 18.5523 12.9999 18H10.9999ZM2.23192 19.016L3.12314 19.4696L3.12329 19.4693L2.23192 19.016ZM10.3499 3.05201L11.2413 3.50528L11.2414 3.50506L10.3499 3.05201ZM13.6519 3.05201L12.7602 3.50455L12.7605 3.50524L13.6519 3.05201ZM21.7689 19.016L22.6609 18.564L22.6603 18.5628L21.7689 19.016ZM10.9999 9.00001V14H12.9999V9.00001H10.9999ZM10.9999 17.5V18H12.9999V17.5H10.9999ZM3.12329 19.4693L11.2413 3.50528L9.45855 2.59873L1.34055 18.5627L3.12329 19.4693ZM11.2414 3.50506C11.5841 2.83081 12.4189 2.832 12.7602 3.50455L14.5437 2.59946C13.461 0.466009 10.5418 0.467201 9.45843 2.59896L11.2414 3.50506ZM12.7605 3.50524L20.8775 19.4692L22.6603 18.5628L14.5433 2.59877L12.7605 3.50524ZM20.8769 19.468C21.2739 20.2514 20.6841 21 20.1159 21V23C22.4037 23 23.626 20.4686 22.6609 18.564L20.8769 19.468ZM20.1159 21H3.88292V23H20.1159V21ZM3.88292 21C3.31447 21 2.72549 20.2509 3.12314 19.4696L1.34069 18.5624C0.370342 20.4691 1.59736 23 3.88292 23V21Z" fill="#FF7A00"/>
</svg>
