<?xml version="1.0" encoding="utf-8"?>
<!-- Generator: Adobe Illustrator 26.0.3, SVG Export Plug-In . SVG Version: 6.00 Build 0)  -->
<svg version="1.1" id="Layer_1" xmlns="http://www.w3.org/2000/svg" xmlns:xlink="http://www.w3.org/1999/xlink" x="0px" y="0px"
	 viewBox="0 0 834.5 126.4" style="enable-background:new 0 0 834.5 126.4;" xml:space="preserve">
<style type="text/css">
	.st0{fill:#FFFFFF;}
	.st1{opacity:0.5;}
	.st2{opacity:0.5;fill:#FFFFFF;}
	.st3{opacity:0.75;fill:#FFFFFF;}
</style>
<g>
	<path class="st0" d="M228.6,32.6l-24.2,56.6c-5.4,12.6-14.8,15.4-22.5,15.4c-4.4,0-7.9-0.9-11-2.5l-0.8-1.4l3.5-13l1.4-0.8
		c1.4,0.7,3.3,1.2,5.6,1.2c1.5,0,4.4-0.2,5.8-3.2l1.9-3.8l-22.8-48.4l1-1.4h21l11,29.7l10.7-29.7h18.5L228.6,32.6z"/>
	<path class="st0" d="M234.6,31.2h21.5v54.9h-21.5V31.2z"/>
	<path class="st0" d="M234.6,1h21.5v20.3h-21.5V1z"/>
	<path class="st0" d="M285.7,63.1c0.8,6.2,5.4,9.1,11.6,9.1c5.3,0,9.9-1.8,13.2-4.9h1.5l9,8.9v1.5c-6.5,7.3-16.5,9.7-25,9.7
		c-18.5,0-31-12.1-31-28.8c0-16.7,12.2-28.8,30.2-28.8c8.5,0,15.7,2.9,21,7.9c4.9,4.9,7.9,11.9,7.9,20.4c0,1.6-0.1,3.3-0.4,4.9
		H285.7z M285.7,52h17.7c-0.3-2.2-1.3-4.1-2.5-5.3c-1.6-1.6-3.8-2.5-6.3-2.5C289.5,44.3,286.4,47.3,285.7,52z"/>
	<path class="st0" d="M332.9,13.3l19.9-2.1l1.6,1v73.9h-21.5V13.3z"/>
	<path class="st0" d="M424.7,12.2v73.9h-17.6v-5.2c-4.2,4-9.7,6.5-16.5,6.5c-15.7,0-27.4-12.5-27.4-28.8c0-16.3,11.5-28.8,27.4-28.8
		c4.6,0,8.8,1.2,12.5,3.2V13.3l19.9-2.1L424.7,12.2z M404.2,58.6c0-6.2-4.2-10.7-9.9-10.7c-5.7,0-9.9,4.5-9.9,10.7
		s4.2,10.7,9.9,10.7C400,69.3,404.2,64.8,404.2,58.6z"/>
	<path class="st0" d="M526.7,52.2v33.9h-5.5V52.6c0-10.8-6.2-17.8-16.6-17.8c-10.9,0-18.5,7.6-18.5,18.2v33.1h-5.6V52.6
		c0-10.8-6.2-17.8-16.6-17.8c-10.9,0-18.5,7.6-18.5,18.2v33.1H440V31.2h5.2v9c3.8-6.4,10.8-10.3,19.6-10.3c9.7,0,16.7,4.8,19.7,12.5
		c3.5-7.6,11.1-12.5,21-12.5C518.7,29.9,526.7,38.9,526.7,52.2z"/>
	<path class="st0" d="M540,58.6c0-16.3,12.4-28.8,29.1-28.8s29.1,12.5,29.1,28.8c0,16.3-12.4,28.8-29.1,28.8S540,74.9,540,58.6z
		 M592.6,58.6c0-13.6-9.9-23.8-23.5-23.8S545.5,45,545.5,58.6s9.9,23.8,23.6,23.8C582.7,82.5,592.6,72.3,592.6,58.6z"/>
	<path class="st0" d="M659.4,52.2v33.9h-5.5V52.6c0-10.8-6.9-17.8-17.5-17.8c-11.1,0-18.7,7.6-18.7,18.2v33.1h-5.5V31.2h5.2v8.9
		c3.8-6.3,10.8-10.2,19.7-10.2C650.6,29.9,659.4,38.9,659.4,52.2z"/>
	<path class="st0" d="M677.2,31.2h5.4v54.9h-5.4V31.2z"/>
	<path class="st0" d="M677.2,13.6h5.4v5.2h-5.4V13.6z"/>
	<path class="st0" d="M729,83.5l-0.2,0.5c-2.5,2.1-5.8,3.4-9.9,3.4c-9.3,0-15.2-5.7-15.2-16.4V35.9H694v-4.7h9.7V14l4.9-0.7l0.4,0.3
		v17.5h17.8v4.7h-17.8v35c0,7.7,3.7,11.5,10.1,11.5c2.5,0,5.5-0.8,7.4-2.6l0.5,0.1L729,83.5z"/>
	<path class="st0" d="M733.5,58.6c0-16.3,12.4-28.8,29.1-28.8s29.1,12.5,29.1,28.8c0,16.3-12.4,28.8-29.1,28.8
		S733.5,74.9,733.5,58.6z M786.1,58.6c0-13.6-9.9-23.8-23.5-23.8C748.9,34.8,739,45,739,58.6s9.9,23.8,23.6,23.8
		C776.2,82.5,786.1,72.3,786.1,58.6z"/>
	<path class="st0" d="M833.8,31.8l-1.9,4.2l-0.4,0.2c-1.6-1-3.5-1.3-5.6-1.3c-8.1,0-14.7,8.1-14.7,19.7v31.5h-5.4V31.2h5.2v9.3
		c3.2-6.6,8.8-10.7,15.7-10.7c2.5,0,4.8,0.4,6.9,1.5L833.8,31.8z"/>
	<g>
		<g class="st1">
			<polyline class="st0" points="81.6,125.3 81.6,101.1 25,101.1 25,44.5 0.8,44.5 0.8,125.3 			"/>
		</g>
		<polygon class="st0" points="39.1,30.4 10.7,30.4 10.7,115.4 95.8,115.4 95.8,87 39.1,87 		"/>
		
			<rect x="95.8" y="58.7" transform="matrix(6.123234e-17 -1 1 6.123234e-17 37.1465 182.862)" class="st2" width="28.4" height="28.4"/>
		
			<rect x="95.8" y="30.3" transform="matrix(6.123234e-17 -1 1 6.123234e-17 65.5239 154.4846)" class="st3" width="28.4" height="28.4"/>
		
			<rect x="95.8" y="1.9" transform="matrix(6.123234e-17 -1 1 6.123234e-17 93.9013 126.1072)" class="st0" width="28.4" height="28.4"/>
		
			<rect x="67.4" y="1.9" transform="matrix(6.123234e-17 -1 1 6.123234e-17 65.5239 97.7298)" class="st3" width="28.4" height="28.4"/>
		
			<rect x="39.1" y="1.9" transform="matrix(6.123234e-17 -1 1 6.123234e-17 37.1885 69.3944)" class="st2" width="28.4" height="28.4"/>
	</g>
</g>
</svg>
